<svg xmlns="http://www.w3.org/2000/svg" xmlns:xlink="http://www.w3.org/1999/xlink" preserveAspectRatio="xMidYMid meet" width="900" height="600" viewBox="0 0 900 600" style="width:100%;height:100%"><defs><animateMotion repeatCount="indefinite" dur="5s" begin="0s" xlink:href="#_R_G_L_4_G" fill="freeze" keyTimes="0;0.2;0.8;0.9966667;1" path="M-440 300 C-440,300 450,300 450,300 C450,300 450,300 450,300 C450,300 1330,300 1330,300 C1330,300 1330,300 1330,300 " keyPoints="0;0.5;0.5;1;1" keySplines="0.333 0 0.667 1;0.167 0.167 0.833 0.833;0.333 0 0.667 1;0 0 0 0" calcMode="spline"/><animateTransform repeatCount="indefinite" dur="5s" begin="0s" xlink:href="#_R_G_L_4_G" fill="freeze" attributeName="transform" from="1.008 1.008" to="1.008 1.008" type="scale" additive="sum" keyTimes="0;1" values="1.008 1.008;1.008 1.008" keySplines="0 0 1 1" calcMode="spline"/><animateTransform repeatCount="indefinite" dur="5s" begin="0s" xlink:href="#_R_G_L_3_G" fill="freeze" attributeName="transform" from="0 0" to="0 0" type="scale" additive="sum" keyTimes="0;0.3;0.4;0.8;0.9;1" values="0 0;0 0;1 1;1 1;0 0;0 0" keySplines="0.333 0 0.667 1;0.333 0 0.667 1;0.167 0.167 0.833 0.833;0.333 0 0.667 1;0 0 0 0" calcMode="spline"/><animateMotion repeatCount="indefinite" dur="5s" begin="0s" xlink:href="#_R_G_L_2_G_N_2_T_0" fill="freeze" keyTimes="0;0.0666667;0.2333333;0.4;0.8;0.8333333;0.9966667;1" path="M0 185.01 C0,185.01 0,185.01 0,185.01 C0,185.01 283.51,185.01 283.51,185.01 C283.51,185.01 1.49,185.01 1.49,185.01 C1.49,185.01 1.49,185.01 1.49,185.01 C1.49,185.01 -284.2,185.01 -284.2,185.01 C-284.2,185.01 1.49,185.01 1.49,185.01 C1.49,185.01 1.49,185.01 1.49,185.01 " keyPoints="0;0;0.25;0.5;0.5;0.75;1;1" keySplines="0.333 0 0.667 1;0.333 0 0.667 1;0.333 0 0.667 1;0.167 0.167 0.833 0.833;0.333 0 0.667 1;0.333 0 0.667 1;0 0 0 0" calcMode="spline"/><animateTransform repeatCount="indefinite" dur="5s" begin="0s" xlink:href="#_R_G_L_2_G_N_2_T_0" fill="freeze" attributeName="transform" from="0.99206 0.99206" to="0.99206 0.99206" type="scale" additive="sum" keyTimes="0;1" values="0.99206 0.99206;0.99206 0.99206" keySplines="0 0 1 1" calcMode="spline"/><animateTransform repeatCount="indefinite" dur="5s" begin="0s" xlink:href="#_R_G_L_2_G_N_2_T_0" fill="freeze" attributeName="transform" from="-118 -58.5" to="-118 -58.5" type="translate" additive="sum" keyTimes="0;1" values="-118 -58.5;-118 -58.5" keySplines="0 0 1 1" calcMode="spline"/><animateMotion repeatCount="indefinite" dur="5s" begin="0s" xlink:href="#_R_G_L_2_G_N_2_N_5_T_0" fill="freeze" keyTimes="0;0.2;0.8;0.9966667;1" path="M-440 300 C-440,300 450,300 450,300 C450,300 450,300 450,300 C450,300 1330,300 1330,300 C1330,300 1330,300 1330,300 " keyPoints="0;0.5;0.5;1;1" keySplines="0.333 0 0.667 1;0.167 0.167 0.833 0.833;0.333 0 0.667 1;0 0 0 0" calcMode="spline"/><animateTransform repeatCount="indefinite" dur="5s" begin="0s" xlink:href="#_R_G_L_2_G_N_2_N_5_T_0" fill="freeze" attributeName="transform" from="1.008 1.008" to="1.008 1.008" type="scale" additive="sum" keyTimes="0;1" values="1.008 1.008;1.008 1.008" keySplines="0 0 1 1" calcMode="spline"/><animateMotion repeatCount="indefinite" dur="5s" begin="0s" xlink:href="#_R_G_L_1_G" fill="freeze" keyTimes="0;0.0666667;0.2333333;0.4;0.8;0.8333333;0.9966667;1" path="M0 185.01 C0,185.01 0,185.01 0,185.01 C0,185.01 283.51,185.01 283.51,185.01 C283.51,185.01 1.49,185.01 1.49,185.01 C1.49,185.01 1.49,185.01 1.49,185.01 C1.49,185.01 -284.2,185.01 -284.2,185.01 C-284.2,185.01 1.49,185.01 1.49,185.01 C1.49,185.01 1.49,185.01 1.49,185.01 " keyPoints="0;0;0.25;0.5;0.5;0.75;1;1" keySplines="0.333 0 0.667 1;0.333 0 0.667 1;0.333 0 0.667 1;0.167 0.167 0.833 0.833;0.333 0 0.667 1;0.333 0 0.667 1;0 0 0 0" calcMode="spline"/><animateTransform repeatCount="indefinite" dur="5s" begin="0s" xlink:href="#_R_G_L_1_G" fill="freeze" attributeName="transform" from="0.99206 0.99206" to="0.99206 0.99206" type="scale" additive="sum" keyTimes="0;1" values="0.99206 0.99206;0.99206 0.99206" keySplines="0 0 1 1" calcMode="spline"/><animateTransform repeatCount="indefinite" dur="5s" begin="0s" xlink:href="#_R_G_L_1_G" fill="freeze" attributeName="transform" from="-118 -58.5" to="-118 -58.5" type="translate" additive="sum" keyTimes="0;1" values="-118 -58.5;-118 -58.5" keySplines="0 0 1 1" calcMode="spline"/><animateMotion repeatCount="indefinite" dur="5s" begin="0s" xlink:href="#_R_G_L_1_G_N_5_T_0" fill="freeze" keyTimes="0;0.2;0.8;0.9966667;1" path="M-440 300 C-440,300 450,300 450,300 C450,300 450,300 450,300 C450,300 1330,300 1330,300 C1330,300 1330,300 1330,300 " keyPoints="0;0.5;0.5;1;1" keySplines="0.333 0 0.667 1;0.167 0.167 0.833 0.833;0.333 0 0.667 1;0 0 0 0" calcMode="spline"/><animateTransform repeatCount="indefinite" dur="5s" begin="0s" xlink:href="#_R_G_L_1_G_N_5_T_0" fill="freeze" attributeName="transform" from="1.008 1.008" to="1.008 1.008" type="scale" additive="sum" keyTimes="0;1" values="1.008 1.008;1.008 1.008" keySplines="0 0 1 1" calcMode="spline"/><animate repeatCount="indefinite" dur="5s" begin="0s" xlink:href="#_R_G_L_0_G_M" fill="freeze" attributeName="opacity" from="0" to="0" keyTimes="0;0.4033333;0.4033337;0.8;0.8;1" values="0;0;1;1;0;0" keySplines="0 0 0 0;0 0 0 0;0 0 0 0;0 0 0 0;0 0 0 0" calcMode="spline"/><animate attributeType="XML" attributeName="opacity" dur="5s" from="0" to="1" xlink:href="#time_group"/></defs><g id="_R_G"><g id="_R_G_L_4_G"><path id="_R_G_L_4_G_D_0_P_0" stroke="#00334e" stroke-linecap="round" stroke-linejoin="round" fill="none" stroke-width="9" stroke-opacity="1" d=" M-399 251 C-399,251 400,250 400,250 "/></g><g id="_R_G_L_3_G" transform=" translate(450.5, 278.088)"><path id="_R_G_L_3_G_D_0_P_0" fill="#fbb83f" fill-opacity="1" fill-rule="nonzero" d=" M0 -185.5 C102.38,-185.5 185.5,-102.38 185.5,0 C185.5,102.38 102.38,185.5 0,185.5 C-102.38,185.5 -185.5,102.38 -185.5,0 C-185.5,-102.38 -102.38,-185.5 0,-185.5z "/></g><g id="_R_G_L_2_G_N_2_N_5_T_0"><g id="_R_G_L_2_G_N_2_T_0"><g id="_R_G_L_2_G" transform=" translate(119.392, 50.493) translate(-112.036, -45.452)"><path id="_R_G_L_2_G_D_0_P_0" fill="#ffffff" fill-opacity="1" fill-rule="nonzero" d=" M0 40.26 C0,40.26 0,87.21 0,87.21 C0,87.21 21.22,90.91 21.22,90.91 C21.22,90.91 26.73,74.86 26.73,74.86 C26.73,74.86 48.45,74.86 48.45,74.86 C48.45,74.86 55.75,90.91 55.75,90.91 C55.75,90.91 164.34,87.21 164.34,87.21 C164.34,87.21 170.61,74.86 170.61,74.86 C170.61,74.86 191.73,74.86 191.73,74.86 C191.73,74.86 199.95,90.91 199.95,90.91 C199.95,90.91 224.07,87.21 224.07,87.21 C224.07,87.21 224.07,47.88 224.07,47.88 C224.07,47.88 176.95,35.15 176.95,35.15 C176.95,35.15 164.34,35.15 164.34,35.15 C164.34,35.15 126.66,0 126.66,0 C126.66,0 55.75,0 55.75,0 C55.75,0 21.22,35.15 21.22,35.15 C21.22,35.15 0,40.26 0,40.26z "/></g></g></g><g id="_R_G_L_1_G_N_5_T_0"><g id="_R_G_L_1_G"><g id="_R_G_L_1_G_L_0_G" transform=" translate(118, 58.261) translate(-118, -58.258)"><path id="_R_G_L_1_G_L_0_G_D_0_P_0" fill="#00334e" fill-opacity="1" fill-rule="nonzero" d=" M146.37 52.28 C146.37,54.76 144.36,56.77 141.89,56.77 C141.89,56.77 76.16,56.77 76.16,56.77 C75.47,56.77 74.78,56.6 74.16,56.29 C74.16,56.29 62.21,50.32 62.21,50.32 C59.99,49.23 59.07,46.55 60.15,44.33 C61.24,42.1 63.93,41.18 66.15,42.27 C66.15,42.27 66.21,42.3 66.21,42.3 C66.21,42.3 77.22,47.8 77.22,47.8 C77.22,47.8 141.89,47.8 141.89,47.8 C144.36,47.8 146.37,49.81 146.37,52.28z  M227.04 85.15 C227.04,87.62 225.03,89.63 222.56,89.63 C222.56,89.63 211.65,89.63 211.65,89.63 C209.17,77.51 197.33,69.68 185.2,72.16 C176.41,73.96 169.54,80.83 167.74,89.63 C167.74,89.63 68.24,89.63 68.24,89.63 C65.76,77.51 53.92,69.68 41.8,72.16 C33,73.96 26.13,80.83 24.33,89.63 C24.33,89.63 13.42,89.63 13.42,89.63 C10.95,89.63 8.94,87.62 8.94,85.15 C8.94,85.15 8.94,53.31 8.94,53.31 C8.94,51.25 10.34,49.46 12.33,48.96 C12.33,48.96 27.04,45.28 27.04,45.28 C29.4,44.69 31.56,43.47 33.29,41.74 C33.29,41.74 64.75,10.28 64.75,10.28 C65.59,9.44 66.74,8.96 67.93,8.96 C67.93,8.96 132.2,8.96 132.2,8.96 C133.39,8.96 134.53,9.44 135.37,10.28 C135.37,10.28 166.85,41.76 166.85,41.76 C168.81,43.72 171.47,44.82 174.25,44.82 C174.25,44.82 176.36,44.82 176.36,44.82 C180.88,44.82 185.38,45.37 189.76,46.46 C189.76,46.46 223.64,54.93 223.64,54.93 C225.64,55.43 227.04,57.23 227.04,59.28 C227.04,59.28 227.04,85.15 227.04,85.15z  M189.69 107.56 C182.27,107.56 176.25,101.54 176.25,94.11 C176.25,86.68 182.27,80.67 189.69,80.67 C197.12,80.67 203.14,86.68 203.14,94.11 C203.13,101.53 197.11,107.55 189.69,107.56  M46.29 107.56 C38.86,107.56 32.84,101.54 32.84,94.11 C32.84,86.68 38.86,80.67 46.29,80.67 C53.71,80.67 59.73,86.68 59.73,94.11 C59.72,101.53 53.71,107.55 46.29,107.56  M225.82 46.24 C225.82,46.24 191.94,37.77 191.94,37.77 C186.84,36.5 181.61,35.85 176.36,35.85 C176.36,35.85 174.25,35.85 174.25,35.85 C173.85,35.85 173.46,35.7 173.18,35.42 C173.18,35.42 141.71,3.94 141.71,3.94 C139.19,1.41 135.77,-0.01 132.2,0 C132.2,0 67.93,0 67.93,0 C64.36,-0.01 60.94,1.41 58.42,3.94 C58.42,3.94 26.95,35.41 26.95,35.41 C26.38,35.99 25.65,36.4 24.86,36.6 C24.86,36.6 10.16,40.28 10.16,40.28 C4.18,41.78 -0.01,47.16 0,53.32 C0,53.32 0,85.15 0,85.15 C0.01,92.56 6.01,98.57 13.42,98.59 C13.42,98.59 24.33,98.59 24.33,98.59 C26.81,110.72 38.65,118.54 50.77,116.06 C59.57,114.26 66.44,107.39 68.24,98.59 C68.24,98.59 167.74,98.59 167.74,98.59 C170.22,110.72 182.06,118.54 194.18,116.06 C202.98,114.26 209.85,107.39 211.65,98.59 C211.65,98.59 222.56,98.59 222.56,98.59 C229.98,98.59 235.99,92.57 236,85.15 C236,85.15 236,59.28 236,59.28 C236.01,53.11 231.81,47.73 225.82,46.24 "/></g></g></g><g id="_R_G_L_0_G_M"><g id="_R_G_L_0_G" transform=" translate(450.477, 289.109) translate(-110.479, -88.109)"><path id="_R_G_L_0_G_D_0_P_0" fill="#00334e" fill-opacity="1" fill-rule="nonzero" d=" M172.05 47.58 C168.86,47.58 168.2,47.58 163.83,51.94 C157.3,58.47 153.23,58.63 149.95,58.76 C142.37,58.76 137.58,64.29 132.52,70.15 C132.52,70.15 132.49,70.18 132.49,70.18 C132.49,70.18 131.49,71.33 131.49,71.33 C131.49,71.33 131.5,71.35 131.5,71.35 C131.5,71.35 131.5,84.41 131.5,84.41 C131.5,97.51 142.16,108.18 155.27,108.18 C168.38,108.18 179.04,97.51 179.04,84.41 C179.04,84.41 179.04,60.16 179.04,60.16 C179.04,51.9 175.53,47.58 172.05,47.58z  M82.52 8.39 C60.15,8.39 41.95,26.58 41.95,48.95 C41.95,48.95 41.95,82.51 41.95,82.51 C41.95,104.87 60.15,123.06 82.51,123.06 C104.87,123.06 123.06,104.87 123.06,82.51 C123.06,82.51 123.06,48.95 123.06,48.95 C123.06,26.58 104.87,8.39 82.52,8.39z  M148.28 115.78 C148.28,115.78 148.28,121.11 148.28,121.11 C148.28,121.17 148.26,121.22 148.25,121.27 C148.23,121.32 148.22,121.36 148.22,121.4 C148.22,121.45 148.23,121.49 148.25,121.54 C148.26,121.59 148.28,121.64 148.28,121.69 C148.28,125.55 151.41,128.69 155.27,128.69 C159.13,128.69 162.26,125.55 162.26,121.69 C162.26,121.64 162.28,121.58 162.29,121.53 C162.31,121.49 162.32,121.45 162.32,121.4 C162.32,121.36 162.31,121.32 162.29,121.28 C162.28,121.23 162.26,121.17 162.26,121.11 C162.26,121.11 162.26,115.78 162.26,115.78 C159.92,116.31 157.56,116.57 155.27,116.57 C152.97,116.57 150.62,116.31 148.28,115.78z  M187.43 75.04 C187.43,75.04 187.43,84.41 187.43,84.41 C187.43,96.16 181,106.98 170.65,112.64 C170.65,112.64 170.65,117.5 170.65,117.5 C170.65,117.5 183.24,117.5 183.24,117.5 C193.24,117.5 202.3,123.13 206.88,132.2 C208.03,131.64 211.79,129.22 211.79,121.55 C211.79,117.71 210.62,113.12 209.59,109.07 C209.59,109.07 209.57,109.02 209.57,109.02 C208.17,103.49 207.16,99.49 208.63,96.48 C213.5,86.5 214.7,72.68 207.55,65.57 C204.47,62.49 204.38,51.62 204.38,51.51 C204.38,43.07 197.46,36.2 188.96,36.2 C187.41,36.2 185.81,35.38 185.09,34.21 C179.47,25.07 169.68,19.61 158.91,19.61 C150.5,19.61 142.65,22.94 136.8,28.99 C136,29.83 135,30.27 133.92,30.27 C133.87,30.27 133.81,30.27 133.76,30.27 C131.83,30.27 129.97,30.58 128.08,31.2 C130.32,36.94 131.46,42.91 131.46,48.95 C131.46,48.95 131.46,58.92 131.46,58.92 C134.16,56.25 136.74,54.3 139.35,52.93 C142.64,51.21 146.02,50.37 149.68,50.37 C149.68,50.37 149.76,50.37 149.76,50.37 C151.8,50.36 153.57,50.34 157.9,46.01 C164.11,39.8 166.85,39.19 172.05,39.19 C179.46,39.19 187.43,45.75 187.43,60.16 C187.43,62.91 188.69,64.29 191.31,66.91 C194.39,70 198.62,74.24 198.62,82.54 C198.62,84.85 196.74,86.73 194.43,86.73 C192.11,86.73 190.23,84.85 190.23,82.54 C190.23,78.81 188.89,76.73 187.43,75.04z  M75.52 130.9 C75.52,130.9 75.52,136.71 75.52,136.71 C75.52,136.71 82.51,143.7 82.51,143.7 C82.51,143.7 89.51,136.71 89.51,136.71 C89.51,136.71 89.51,130.9 89.51,130.9 C86.86,131.28 84.63,131.45 82.52,131.45 C80.38,131.45 78.16,131.28 75.52,130.9z  M4.2 176.22 C3.8,176.22 3.41,176.16 3.03,176.06 C0.82,175.41 -0.47,173.08 0.16,170.86 C6.23,149.8 27.17,134.41 49.95,134.26 C50.05,134.25 50.16,134.25 50.27,134.25 C50.27,134.25 67.13,134.25 67.13,134.25 C67.13,134.25 67.13,128.94 67.13,128.94 C57.45,125.72 49.12,119.66 43.05,111.4 C36.84,102.97 33.56,92.98 33.56,82.51 C33.56,82.51 33.56,48.95 33.56,48.95 C33.56,21.96 55.52,0 82.51,0 C91.05,0 99.47,2.25 106.84,6.52 C113.99,10.65 120.03,16.57 124.33,23.64 C124.37,23.62 124.4,23.6 124.43,23.58 C124.47,23.55 124.51,23.51 124.56,23.5 C126.95,22.61 129.45,22.08 132.01,21.92 C139.29,15.02 148.85,11.22 158.91,11.22 C165.26,11.22 171.54,12.74 177.07,15.63 C182.59,18.51 187.41,22.76 191,27.93 C196.97,28.48 202.47,31.18 206.5,35.53 C210.54,39.9 212.77,45.57 212.77,51.51 C212.77,53.92 213.36,58.54 213.87,60.02 C223.83,70.42 222.04,88.12 216.17,100.17 C216.15,100.8 216.98,104.08 217.65,106.72 C217.65,106.72 217.72,107 217.72,107 C218.87,111.54 220.18,116.69 220.18,121.55 C220.18,136.23 209.97,140.03 209.54,140.18 C209.51,140.19 209.49,140.19 209.47,140.2 C209.46,140.2 209.44,140.2 209.42,140.21 C209.42,140.21 209.46,140.5 209.46,140.5 C209.63,141.66 209.81,142.85 209.81,144.07 C209.81,146.38 207.93,148.27 205.61,148.27 C203.3,148.27 201.42,146.38 201.42,144.07 C201.42,134.04 193.27,125.89 183.24,125.89 C183.24,125.89 170.08,125.89 170.08,125.89 C168.2,132.48 162.11,137.08 155.27,137.08 C148.48,137.08 142.42,132.48 140.54,125.89 C140.54,125.89 132.85,125.89 132.85,125.89 C130.54,125.89 128.66,124.01 128.66,121.69 C128.66,119.38 130.54,117.5 132.85,117.5 C132.85,117.5 139.89,117.5 139.89,117.5 C139.89,117.5 139.89,112.64 139.89,112.64 C134.94,109.94 130.75,105.92 127.79,101.04 C122.35,114.27 111.45,124.44 97.9,128.94 C97.9,128.94 97.9,134.25 97.9,134.25 C97.9,134.25 116.08,134.25 116.08,134.25 C138.6,134.25 158.66,149.3 164.86,170.85 C165.49,173.07 164.2,175.4 161.98,176.04 C161.6,176.15 161.2,176.21 160.81,176.21 C158.96,176.21 157.31,174.96 156.79,173.17 C151.62,155.2 134.88,142.65 116.08,142.65 C116.08,142.65 95.44,142.65 95.44,142.65 C95.44,142.65 86.7,151.37 86.7,151.37 C86.7,151.37 86.7,160.82 86.7,160.82 C86.7,163.14 84.82,165.02 82.51,165.02 C80.2,165.02 78.31,163.14 78.31,160.82 C78.31,160.82 78.31,151.37 78.31,151.37 C78.31,151.37 69.59,142.65 69.59,142.65 C69.59,142.65 50.57,142.65 50.57,142.65 C50.48,142.65 50.37,142.65 50.27,142.65 C31.01,142.65 13.32,155.49 8.23,173.18 C7.71,174.97 6.06,176.22 4.2,176.22z "/></g></g></g><g id="time_group"/></svg>