<svg xmlns="http://www.w3.org/2000/svg" xmlns:xlink="http://www.w3.org/1999/xlink" preserveAspectRatio="xMidYMid meet" width="900" height="600" viewBox="0 0 900 600" style="width:100%;height:100%"><defs><animateMotion repeatCount="indefinite" dur="5s" begin="0s" xlink:href="#_R_G_L_13_G_N_12_T_0" fill="freeze" keyTimes="0;0.0666667;0.2333333;0.4;0.8;0.8333333;0.9966667;1" path="M0 185.01 C0,185.01 0,185.01 0,185.01 C0,185.01 283.51,185.01 283.51,185.01 C283.51,185.01 1.49,185.01 1.49,185.01 C1.49,185.01 1.49,185.01 1.49,185.01 C1.49,185.01 -284.2,185.01 -284.2,185.01 C-284.2,185.01 1.49,185.01 1.49,185.01 C1.49,185.01 1.49,185.01 1.49,185.01 " keyPoints="0;0;0.25;0.5;0.5;0.75;1;1" keySplines="0.333 0 0.667 1;0.333 0 0.667 1;0.333 0 0.667 1;0.167 0.167 0.833 0.833;0.333 0 0.667 1;0.333 0 0.667 1;0 0 0 0" calcMode="spline"/><animateTransform repeatCount="indefinite" dur="5s" begin="0s" xlink:href="#_R_G_L_13_G_N_12_T_0" fill="freeze" attributeName="transform" from="0.99206 0.99206" to="0.99206 0.99206" type="scale" additive="sum" keyTimes="0;1" values="0.99206 0.99206;0.99206 0.99206" keySplines="0 0 1 1" calcMode="spline"/><animateTransform repeatCount="indefinite" dur="5s" begin="0s" xlink:href="#_R_G_L_13_G_N_12_T_0" fill="freeze" attributeName="transform" from="-118 -58.5" to="-118 -58.5" type="translate" additive="sum" keyTimes="0;1" values="-118 -58.5;-118 -58.5" keySplines="0 0 1 1" calcMode="spline"/><animateMotion repeatCount="indefinite" dur="5s" begin="0s" xlink:href="#_R_G_L_13_G_N_12_N_13_T_0" fill="freeze" keyTimes="0;0.2;0.8;0.9966667;1" path="M-440 300 C-440,300 450,300 450,300 C450,300 450,300 450,300 C450,300 1330,300 1330,300 C1330,300 1330,300 1330,300 " keyPoints="0;0.5;0.5;1;1" keySplines="0.333 0 0.667 1;0.167 0.167 0.833 0.833;0.333 0 0.667 1;0 0 0 0" calcMode="spline"/><animateTransform repeatCount="indefinite" dur="5s" begin="0s" xlink:href="#_R_G_L_13_G_N_12_N_13_T_0" fill="freeze" attributeName="transform" from="1.008 1.008" to="1.008 1.008" type="scale" additive="sum" keyTimes="0;1" values="1.008 1.008;1.008 1.008" keySplines="0 0 1 1" calcMode="spline"/><animateMotion repeatCount="indefinite" dur="5s" begin="0s" xlink:href="#_R_G_L_12_G" fill="freeze" keyTimes="0;0.2;0.8;0.9966667;1" path="M-440 300 C-440,300 450,300 450,300 C450,300 450,300 450,300 C450,300 1330,300 1330,300 C1330,300 1330,300 1330,300 " keyPoints="0;0.5;0.5;1;1" keySplines="0.333 0 0.667 1;0.167 0.167 0.833 0.833;0.333 0 0.667 1;0 0 0 0" calcMode="spline"/><animateTransform repeatCount="indefinite" dur="5s" begin="0s" xlink:href="#_R_G_L_12_G" fill="freeze" attributeName="transform" from="1.008 1.008" to="1.008 1.008" type="scale" additive="sum" keyTimes="0;1" values="1.008 1.008;1.008 1.008" keySplines="0 0 1 1" calcMode="spline"/><animateMotion repeatCount="indefinite" dur="5s" begin="0s" xlink:href="#_R_G_L_11_G" fill="freeze" keyTimes="0;0.0666667;0.2333333;0.4;0.8;0.8333333;0.9966667;1" path="M0 185.01 C0,185.01 0,185.01 0,185.01 C0,185.01 283.51,185.01 283.51,185.01 C283.51,185.01 1.49,185.01 1.49,185.01 C1.49,185.01 1.49,185.01 1.49,185.01 C1.49,185.01 -284.2,185.01 -284.2,185.01 C-284.2,185.01 1.49,185.01 1.49,185.01 C1.49,185.01 1.49,185.01 1.49,185.01 " keyPoints="0;0;0.25;0.5;0.5;0.75;1;1" keySplines="0.333 0 0.667 1;0.333 0 0.667 1;0.333 0 0.667 1;0.167 0.167 0.833 0.833;0.333 0 0.667 1;0.333 0 0.667 1;0 0 0 0" calcMode="spline"/><animateTransform repeatCount="indefinite" dur="5s" begin="0s" xlink:href="#_R_G_L_11_G" fill="freeze" attributeName="transform" from="0.99206 0.99206" to="0.99206 0.99206" type="scale" additive="sum" keyTimes="0;1" values="0.99206 0.99206;0.99206 0.99206" keySplines="0 0 1 1" calcMode="spline"/><animateTransform repeatCount="indefinite" dur="5s" begin="0s" xlink:href="#_R_G_L_11_G" fill="freeze" attributeName="transform" from="-118 -58.5" to="-118 -58.5" type="translate" additive="sum" keyTimes="0;1" values="-118 -58.5;-118 -58.5" keySplines="0 0 1 1" calcMode="spline"/><animateMotion repeatCount="indefinite" dur="5s" begin="0s" xlink:href="#_R_G_L_11_G_N_13_T_0" fill="freeze" keyTimes="0;0.2;0.8;0.9966667;1" path="M-440 300 C-440,300 450,300 450,300 C450,300 450,300 450,300 C450,300 1330,300 1330,300 C1330,300 1330,300 1330,300 " keyPoints="0;0.5;0.5;1;1" keySplines="0.333 0 0.667 1;0.167 0.167 0.833 0.833;0.333 0 0.667 1;0 0 0 0" calcMode="spline"/><animateTransform repeatCount="indefinite" dur="5s" begin="0s" xlink:href="#_R_G_L_11_G_N_13_T_0" fill="freeze" attributeName="transform" from="1.008 1.008" to="1.008 1.008" type="scale" additive="sum" keyTimes="0;1" values="1.008 1.008;1.008 1.008" keySplines="0 0 1 1" calcMode="spline"/><animate attributeType="XML" attributeName="opacity" dur="5s" from="0" to="1" xlink:href="#time_group"/></defs><g id="_R_G"><g id="_R_G_L_14_G" transform=" translate(395, 288.261) translate(-118, -58.258)"><path id="_R_G_L_14_G_D_0_P_0" fill="#00334e" fill-opacity="1" fill-rule="nonzero" d=" M146.37 52.28 C146.37,54.76 144.36,56.77 141.89,56.77 C141.89,56.77 76.16,56.77 76.16,56.77 C75.47,56.77 74.78,56.6 74.16,56.29 C74.16,56.29 62.21,50.32 62.21,50.32 C59.99,49.23 59.07,46.55 60.15,44.33 C61.24,42.1 63.93,41.18 66.15,42.27 C66.15,42.27 66.21,42.3 66.21,42.3 C66.21,42.3 77.22,47.8 77.22,47.8 C77.22,47.8 141.89,47.8 141.89,47.8 C144.36,47.8 146.37,49.81 146.37,52.28z  M227.04 85.15 C227.04,87.62 225.03,89.63 222.56,89.63 C222.56,89.63 211.65,89.63 211.65,89.63 C209.17,77.51 197.33,69.68 185.2,72.16 C176.41,73.96 169.54,80.83 167.74,89.63 C167.74,89.63 68.24,89.63 68.24,89.63 C65.76,77.51 53.92,69.68 41.8,72.16 C33,73.96 26.13,80.83 24.33,89.63 C24.33,89.63 13.42,89.63 13.42,89.63 C10.95,89.63 8.94,87.62 8.94,85.15 C8.94,85.15 8.94,53.31 8.94,53.31 C8.94,51.25 10.34,49.46 12.33,48.96 C12.33,48.96 27.04,45.28 27.04,45.28 C29.4,44.69 31.56,43.47 33.29,41.74 C33.29,41.74 64.75,10.28 64.75,10.28 C65.59,9.44 66.74,8.96 67.93,8.96 C67.93,8.96 132.2,8.96 132.2,8.96 C133.39,8.96 134.53,9.44 135.37,10.28 C135.37,10.28 166.85,41.76 166.85,41.76 C168.81,43.72 171.47,44.82 174.25,44.82 C174.25,44.82 176.36,44.82 176.36,44.82 C180.88,44.82 185.38,45.37 189.76,46.46 C189.76,46.46 223.64,54.93 223.64,54.93 C225.64,55.43 227.04,57.23 227.04,59.28 C227.04,59.28 227.04,85.15 227.04,85.15z  M189.69 107.56 C182.27,107.56 176.25,101.54 176.25,94.11 C176.25,86.68 182.27,80.67 189.69,80.67 C197.12,80.67 203.14,86.68 203.14,94.11 C203.13,101.53 197.11,107.55 189.69,107.56  M46.29 107.56 C38.86,107.56 32.84,101.54 32.84,94.11 C32.84,86.68 38.86,80.67 46.29,80.67 C53.71,80.67 59.73,86.68 59.73,94.11 C59.72,101.53 53.71,107.55 46.29,107.56  M225.82 46.24 C225.82,46.24 191.94,37.77 191.94,37.77 C186.84,36.5 181.61,35.85 176.36,35.85 C176.36,35.85 174.25,35.85 174.25,35.85 C173.85,35.85 173.46,35.7 173.18,35.42 C173.18,35.42 141.71,3.94 141.71,3.94 C139.19,1.41 135.77,-0.01 132.2,0 C132.2,0 67.93,0 67.93,0 C64.36,-0.01 60.94,1.41 58.42,3.94 C58.42,3.94 26.95,35.41 26.95,35.41 C26.38,35.99 25.65,36.4 24.86,36.6 C24.86,36.6 10.16,40.28 10.16,40.28 C4.18,41.78 -0.01,47.16 0,53.32 C0,53.32 0,85.15 0,85.15 C0.01,92.56 6.01,98.57 13.42,98.59 C13.42,98.59 24.33,98.59 24.33,98.59 C26.81,110.72 38.65,118.54 50.77,116.06 C59.57,114.26 66.44,107.39 68.24,98.59 C68.24,98.59 167.74,98.59 167.74,98.59 C170.22,110.72 182.06,118.54 194.18,116.06 C202.98,114.26 209.85,107.39 211.65,98.59 C211.65,98.59 222.56,98.59 222.56,98.59 C229.98,98.59 235.99,92.57 236,85.15 C236,85.15 236,59.28 236,59.28 C236.01,53.11 231.81,47.73 225.82,46.24 "/></g><g id="_R_G_L_13_G_N_12_N_13_T_0"><g id="_R_G_L_13_G_N_12_T_0"><g id="_R_G_L_13_G" transform=" translate(119.392, 50.493) translate(-112.036, -45.452)"><path id="_R_G_L_13_G_D_0_P_0" fill="#fbb83f" fill-opacity="1" fill-rule="nonzero" d=" M0 40.26 C0,40.26 0,87.21 0,87.21 C0,87.21 21.22,90.91 21.22,90.91 C21.22,90.91 26.73,74.86 26.73,74.86 C26.73,74.86 48.45,74.86 48.45,74.86 C48.45,74.86 55.75,90.91 55.75,90.91 C55.75,90.91 164.34,87.21 164.34,87.21 C164.34,87.21 170.61,74.86 170.61,74.86 C170.61,74.86 191.73,74.86 191.73,74.86 C191.73,74.86 199.95,90.91 199.95,90.91 C199.95,90.91 224.07,87.21 224.07,87.21 C224.07,87.21 224.07,47.88 224.07,47.88 C224.07,47.88 176.95,35.15 176.95,35.15 C176.95,35.15 164.34,35.15 164.34,35.15 C164.34,35.15 126.66,0 126.66,0 C126.66,0 55.75,0 55.75,0 C55.75,0 21.22,35.15 21.22,35.15 C21.22,35.15 0,40.26 0,40.26z "/></g></g></g><g id="_R_G_L_12_G"><path id="_R_G_L_12_G_D_0_P_0" stroke="#00334e" stroke-linecap="round" stroke-linejoin="round" fill="none" stroke-width="9" stroke-opacity="1" d=" M-399 251 C-399,251 400,250 400,250 "/></g><g id="_R_G_L_11_G_N_13_T_0"><g id="_R_G_L_11_G"><g id="_R_G_L_11_G_L_0_G" transform=" translate(118, 58.261) translate(-118, -58.258)"><path id="_R_G_L_11_G_L_0_G_D_0_P_0" fill="#00334e" fill-opacity="1" fill-rule="nonzero" d=" M146.37 52.28 C146.37,54.76 144.36,56.77 141.89,56.77 C141.89,56.77 76.16,56.77 76.16,56.77 C75.47,56.77 74.78,56.6 74.16,56.29 C74.16,56.29 62.21,50.32 62.21,50.32 C59.99,49.23 59.07,46.55 60.15,44.33 C61.24,42.1 63.93,41.18 66.15,42.27 C66.15,42.27 66.21,42.3 66.21,42.3 C66.21,42.3 77.22,47.8 77.22,47.8 C77.22,47.8 141.89,47.8 141.89,47.8 C144.36,47.8 146.37,49.81 146.37,52.28z  M227.04 85.15 C227.04,87.62 225.03,89.63 222.56,89.63 C222.56,89.63 211.65,89.63 211.65,89.63 C209.17,77.51 197.33,69.68 185.2,72.16 C176.41,73.96 169.54,80.83 167.74,89.63 C167.74,89.63 68.24,89.63 68.24,89.63 C65.76,77.51 53.92,69.68 41.8,72.16 C33,73.96 26.13,80.83 24.33,89.63 C24.33,89.63 13.42,89.63 13.42,89.63 C10.95,89.63 8.94,87.62 8.94,85.15 C8.94,85.15 8.94,53.31 8.94,53.31 C8.94,51.25 10.34,49.46 12.33,48.96 C12.33,48.96 27.04,45.28 27.04,45.28 C29.4,44.69 31.56,43.47 33.29,41.74 C33.29,41.74 64.75,10.28 64.75,10.28 C65.59,9.44 66.74,8.96 67.93,8.96 C67.93,8.96 132.2,8.96 132.2,8.96 C133.39,8.96 134.53,9.44 135.37,10.28 C135.37,10.28 166.85,41.76 166.85,41.76 C168.81,43.72 171.47,44.82 174.25,44.82 C174.25,44.82 176.36,44.82 176.36,44.82 C180.88,44.82 185.38,45.37 189.76,46.46 C189.76,46.46 223.64,54.93 223.64,54.93 C225.64,55.43 227.04,57.23 227.04,59.28 C227.04,59.28 227.04,85.15 227.04,85.15z  M189.69 107.56 C182.27,107.56 176.25,101.54 176.25,94.11 C176.25,86.68 182.27,80.67 189.69,80.67 C197.12,80.67 203.14,86.68 203.14,94.11 C203.13,101.53 197.11,107.55 189.69,107.56  M46.29 107.56 C38.86,107.56 32.84,101.54 32.84,94.11 C32.84,86.68 38.86,80.67 46.29,80.67 C53.71,80.67 59.73,86.68 59.73,94.11 C59.72,101.53 53.71,107.55 46.29,107.56  M225.82 46.24 C225.82,46.24 191.94,37.77 191.94,37.77 C186.84,36.5 181.61,35.85 176.36,35.85 C176.36,35.85 174.25,35.85 174.25,35.85 C173.85,35.85 173.46,35.7 173.18,35.42 C173.18,35.42 141.71,3.94 141.71,3.94 C139.19,1.41 135.77,-0.01 132.2,0 C132.2,0 67.93,0 67.93,0 C64.36,-0.01 60.94,1.41 58.42,3.94 C58.42,3.94 26.95,35.41 26.95,35.41 C26.38,35.99 25.65,36.4 24.86,36.6 C24.86,36.6 10.16,40.28 10.16,40.28 C4.18,41.78 -0.01,47.16 0,53.32 C0,53.32 0,85.15 0,85.15 C0.01,92.56 6.01,98.57 13.42,98.59 C13.42,98.59 24.33,98.59 24.33,98.59 C26.81,110.72 38.65,118.54 50.77,116.06 C59.57,114.26 66.44,107.39 68.24,98.59 C68.24,98.59 167.74,98.59 167.74,98.59 C170.22,110.72 182.06,118.54 194.18,116.06 C202.98,114.26 209.85,107.39 211.65,98.59 C211.65,98.59 222.56,98.59 222.56,98.59 C229.98,98.59 235.99,92.57 236,85.15 C236,85.15 236,59.28 236,59.28 C236.01,53.11 231.81,47.73 225.82,46.24 "/></g></g></g><g id="_R_G_L_10_G" transform=" translate(686, 288.261) translate(-118, -58.258)"><path id="_R_G_L_10_G_D_0_P_0" fill="#00334e" fill-opacity="1" fill-rule="nonzero" d=" M89.63 52.28 C89.63,54.76 91.64,56.77 94.11,56.77 C94.11,56.77 159.84,56.77 159.84,56.77 C160.53,56.77 161.22,56.6 161.84,56.29 C161.84,56.29 173.79,50.32 173.79,50.32 C176.01,49.23 176.94,46.55 175.85,44.33 C174.76,42.1 172.07,41.18 169.85,42.27 C169.85,42.27 169.79,42.3 169.79,42.3 C169.79,42.3 158.78,47.8 158.78,47.8 C158.78,47.8 94.11,47.8 94.11,47.8 C91.64,47.8 89.63,49.81 89.63,52.28z  M8.96 85.15 C8.96,87.62 10.97,89.63 13.44,89.63 C13.44,89.63 24.36,89.63 24.36,89.63 C26.84,77.51 38.67,69.68 50.8,72.16 C59.59,73.96 66.46,80.83 68.26,89.63 C68.26,89.63 167.76,89.63 167.76,89.63 C170.24,77.51 182.08,69.68 194.2,72.16 C203,73.96 209.87,80.83 211.67,89.63 C211.67,89.63 222.58,89.63 222.58,89.63 C225.05,89.63 227.06,87.62 227.06,85.15 C227.06,85.15 227.06,53.31 227.06,53.31 C227.06,51.25 225.66,49.46 223.67,48.96 C223.67,48.96 208.96,45.28 208.96,45.28 C206.6,44.69 204.44,43.47 202.71,41.74 C202.71,41.74 171.25,10.28 171.25,10.28 C170.41,9.44 169.26,8.96 168.07,8.96 C168.07,8.96 103.8,8.96 103.8,8.96 C102.61,8.96 101.47,9.44 100.63,10.28 C100.63,10.28 69.15,41.76 69.15,41.76 C67.19,43.72 64.53,44.82 61.76,44.82 C61.76,44.82 59.64,44.82 59.64,44.82 C55.12,44.82 50.62,45.37 46.24,46.46 C46.24,46.46 12.36,54.93 12.36,54.93 C10.36,55.43 8.96,57.23 8.96,59.28 C8.96,59.28 8.96,85.15 8.96,85.15z  M46.31 107.56 C53.74,107.56 59.75,101.54 59.75,94.11 C59.75,86.68 53.74,80.67 46.31,80.67 C38.88,80.67 32.86,86.68 32.86,94.11 C32.87,101.53 38.89,107.55 46.31,107.56  M189.72 107.56 C197.14,107.56 203.16,101.54 203.16,94.11 C203.16,86.68 197.14,80.67 189.72,80.67 C182.29,80.67 176.27,86.68 176.27,94.11 C176.28,101.53 182.29,107.55 189.72,107.56  M10.18 46.24 C10.18,46.24 44.06,37.77 44.06,37.77 C49.16,36.5 54.39,35.85 59.64,35.85 C59.64,35.85 61.76,35.85 61.76,35.85 C62.16,35.85 62.54,35.7 62.82,35.42 C62.82,35.42 94.29,3.94 94.29,3.94 C96.81,1.41 100.23,-0.01 103.8,0 C103.8,0 168.07,0 168.07,0 C171.64,-0.01 175.06,1.41 177.58,3.94 C177.58,3.94 209.05,35.41 209.05,35.41 C209.63,35.99 210.35,36.4 211.14,36.6 C211.14,36.6 225.84,40.28 225.84,40.28 C231.82,41.78 236.01,47.16 236,53.32 C236,53.32 236,85.15 236,85.15 C235.99,92.56 229.99,98.57 222.58,98.59 C222.58,98.59 211.67,98.59 211.67,98.59 C209.19,110.72 197.35,118.54 185.23,116.06 C176.43,114.26 169.56,107.39 167.76,98.59 C167.76,98.59 68.26,98.59 68.26,98.59 C65.78,110.72 53.95,118.54 41.82,116.06 C33.03,114.26 26.15,107.39 24.36,98.59 C24.36,98.59 13.44,98.59 13.44,98.59 C6.02,98.59 0.01,92.57 0,85.15 C0,85.15 0,59.28 0,59.28 C-0.01,53.11 4.2,47.73 10.18,46.24 "/></g><g id="_R_G_L_9_G" transform=" translate(749.817, 235.124) translate(-76.317, -111.624)"><path id="_R_G_L_9_G_D_0_P_0" stroke="#00334e" stroke-linecap="round" stroke-linejoin="round" fill="none" stroke-width="9" stroke-opacity="1" d=" M0.5 87.07 C0.5,87.07 1,76.87 1,76.87 C1,76.87 77.31,0.82 77.31,0.82 C77.31,0.82 153.63,76.87 153.63,76.87 C153.63,76.87 153.63,224.07 153.63,224.07 "/></g><g id="_R_G_L_8_G" transform=" translate(749.817, 235.331) translate(0, 0)"/><g id="_R_G_L_7_G" transform=" translate(814.087, 173.947) translate(-12.047, -27.105)"><path id="_R_G_L_7_G_D_0_P_0" stroke="#00334e" stroke-linecap="round" stroke-linejoin="round" fill="none" stroke-width="9" stroke-opacity="1" d=" M0.75 29.45 C0.75,29.45 0,0 0,0 C0,0 23.34,0 23.34,0 C23.34,0 24.09,54.21 24.09,54.21 "/></g><g id="_R_G_L_6_G" transform=" translate(457.817, 236.124) translate(-76.317, -111.624)"><path id="_R_G_L_6_G_D_0_P_0" stroke="#00334e" stroke-linecap="round" stroke-linejoin="round" fill="none" stroke-width="9" stroke-opacity="1" d=" M0.5 87.07 C0.5,87.07 1,76.87 1,76.87 C1,76.87 77.31,0.82 77.31,0.82 C77.31,0.82 153.63,76.87 153.63,76.87 C153.63,76.87 153.63,224.07 153.63,224.07 "/></g><g id="_R_G_L_5_G" transform=" translate(457.817, 236.331) translate(0, 0)"/><g id="_R_G_L_4_G" transform=" translate(522.087, 174.947) translate(-12.047, -27.105)"><path id="_R_G_L_4_G_D_0_P_0" stroke="#00334e" stroke-linecap="round" stroke-linejoin="round" fill="none" stroke-width="9" stroke-opacity="1" d=" M0.75 29.45 C0.75,29.45 0,0 0,0 C0,0 23.34,0 23.34,0 C23.34,0 24.09,54.21 24.09,54.21 "/></g><g id="_R_G_L_3_G" transform=" translate(143.817, 237.124) translate(-76.317, -111.624)"><path id="_R_G_L_3_G_D_0_P_0" stroke="#00334e" stroke-linecap="round" stroke-linejoin="round" fill="none" stroke-width="9" stroke-opacity="1" d=" M0 223.25 C0,223.25 0,76.05 0,76.05 C0,76.05 76.32,0 76.32,0 C76.32,0 152.63,76.05 152.63,76.05 C152.63,76.05 152.63,223.25 152.63,223.25 "/></g><g id="_R_G_L_2_G" transform=" translate(143.786, 325.271) translate(-17.619, -23.582)"><path id="_R_G_L_2_G_D_0_P_0" stroke="#00334e" stroke-linecap="round" stroke-linejoin="round" fill="none" stroke-width="9" stroke-opacity="1" d=" M0 47.06 C0,47.06 0,0 0,0 C0,0 35.24,0 35.24,0 C35.24,0 35.24,47.17 35.24,47.17 "/></g><g id="_R_G_L_1_G" transform=" translate(143.817, 237.331) translate(0, 0)"><path id="_R_G_L_1_G_D_0_P_0" stroke="#00334e" stroke-linecap="round" stroke-linejoin="round" fill="none" stroke-width="9" stroke-opacity="1" d=" M0 -17.62 C9.72,-17.62 17.62,-9.72 17.62,0 C17.62,9.72 9.72,17.62 0,17.62 C-9.72,17.62 -17.62,9.72 -17.62,0 C-17.62,-9.72 -9.72,-17.62 0,-17.62z "/></g><g id="_R_G_L_0_G" transform=" translate(208.087, 175.947) translate(-12.047, -27.105)"><path id="_R_G_L_0_G_D_0_P_0" stroke="#00334e" stroke-linecap="round" stroke-linejoin="round" fill="none" stroke-width="9" stroke-opacity="1" d=" M0.75 29.45 C0.75,29.45 0,0 0,0 C0,0 23.34,0 23.34,0 C23.34,0 24.09,54.21 24.09,54.21 "/></g></g><g id="time_group"/></svg>