<svg xmlns="http://www.w3.org/2000/svg" xmlns:xlink="http://www.w3.org/1999/xlink" preserveAspectRatio="xMidYMid meet" width="900" height="600" viewBox="0 0 900 600" style="width:100%;height:100%"><defs><animateMotion repeatCount="indefinite" dur="5s" begin="0s" xlink:href="#_R_G_L_6_G" fill="freeze" keyTimes="0;0.2;0.8;0.9966667;1" path="M-440 300 C-440,300 450,300 450,300 C450,300 450,300 450,300 C450,300 1330,300 1330,300 C1330,300 1330,300 1330,300 " keyPoints="0;0.5;0.5;1;1" keySplines="0.333 0 0.667 1;0.167 0.167 0.833 0.833;0.333 0 0.667 1;0 0 0 0" calcMode="spline"/><animateTransform repeatCount="indefinite" dur="5s" begin="0s" xlink:href="#_R_G_L_6_G" fill="freeze" attributeName="transform" from="1.008 1.008" to="1.008 1.008" type="scale" additive="sum" keyTimes="0;1" values="1.008 1.008;1.008 1.008" keySplines="0 0 1 1" calcMode="spline"/><animate repeatCount="indefinite" dur="5s" begin="0s" xlink:href="#_R_G_L_5_G" fill="freeze" attributeName="opacity" from="0" to="0" keyTimes="0;0.2966667;0.3;0.9;0.9033333;1" values="0;0;1;1;0;0" keySplines="0.167 0.167 0.833 0.833;0.167 0.167 0.833 0.833;0.167 0.167 0.833 0.833;0.167 0.167 0.833 0.833;0 0 0 0" calcMode="spline"/><animateTransform repeatCount="indefinite" dur="5s" begin="0s" xlink:href="#_R_G_L_5_G" fill="freeze" attributeName="transform" from="0 0" to="0 0" type="scale" additive="sum" keyTimes="0;0.3;0.4;0.8;0.9;1" values="0 0;0 0;1 1;1 1;0 0;0 0" keySplines="0.333 0 0.667 1;0.333 0 0.667 1;0.167 0.167 0.833 0.833;0.333 0 0.667 1;0 0 0 0" calcMode="spline"/><animateMotion repeatCount="indefinite" dur="5s" begin="0s" xlink:href="#_R_G_L_4_G_N_4_T_0" fill="freeze" keyTimes="0;0.0666667;0.2333333;0.4;0.8;0.8333333;0.9966667;1" path="M0 185.01 C0,185.01 0,185.01 0,185.01 C0,185.01 283.51,185.01 283.51,185.01 C283.51,185.01 1.49,185.01 1.49,185.01 C1.49,185.01 1.49,185.01 1.49,185.01 C1.49,185.01 -284.2,185.01 -284.2,185.01 C-284.2,185.01 1.49,185.01 1.49,185.01 C1.49,185.01 1.49,185.01 1.49,185.01 " keyPoints="0;0;0.25;0.5;0.5;0.75;1;1" keySplines="0.333 0 0.667 1;0.333 0 0.667 1;0.333 0 0.667 1;0.167 0.167 0.833 0.833;0.333 0 0.667 1;0.333 0 0.667 1;0 0 0 0" calcMode="spline"/><animateTransform repeatCount="indefinite" dur="5s" begin="0s" xlink:href="#_R_G_L_4_G_N_4_T_0" fill="freeze" attributeName="transform" from="0.99206 0.99206" to="0.99206 0.99206" type="scale" additive="sum" keyTimes="0;1" values="0.99206 0.99206;0.99206 0.99206" keySplines="0 0 1 1" calcMode="spline"/><animateTransform repeatCount="indefinite" dur="5s" begin="0s" xlink:href="#_R_G_L_4_G_N_4_T_0" fill="freeze" attributeName="transform" from="-118 -58.5" to="-118 -58.5" type="translate" additive="sum" keyTimes="0;1" values="-118 -58.5;-118 -58.5" keySplines="0 0 1 1" calcMode="spline"/><animateMotion repeatCount="indefinite" dur="5s" begin="0s" xlink:href="#_R_G_L_4_G_N_4_N_7_T_0" fill="freeze" keyTimes="0;0.2;0.8;0.9966667;1" path="M-440 300 C-440,300 450,300 450,300 C450,300 450,300 450,300 C450,300 1330,300 1330,300 C1330,300 1330,300 1330,300 " keyPoints="0;0.5;0.5;1;1" keySplines="0.333 0 0.667 1;0.167 0.167 0.833 0.833;0.333 0 0.667 1;0 0 0 0" calcMode="spline"/><animateTransform repeatCount="indefinite" dur="5s" begin="0s" xlink:href="#_R_G_L_4_G_N_4_N_7_T_0" fill="freeze" attributeName="transform" from="1.008 1.008" to="1.008 1.008" type="scale" additive="sum" keyTimes="0;1" values="1.008 1.008;1.008 1.008" keySplines="0 0 1 1" calcMode="spline"/><animateMotion repeatCount="indefinite" dur="5s" begin="0s" xlink:href="#_R_G_L_3_G" fill="freeze" keyTimes="0;0.0666667;0.2333333;0.4;0.8;0.8333333;0.9966667;1" path="M0 185.01 C0,185.01 0,185.01 0,185.01 C0,185.01 283.51,185.01 283.51,185.01 C283.51,185.01 1.49,185.01 1.49,185.01 C1.49,185.01 1.49,185.01 1.49,185.01 C1.49,185.01 -284.2,185.01 -284.2,185.01 C-284.2,185.01 1.49,185.01 1.49,185.01 C1.49,185.01 1.49,185.01 1.49,185.01 " keyPoints="0;0;0.25;0.5;0.5;0.75;1;1" keySplines="0.333 0 0.667 1;0.333 0 0.667 1;0.333 0 0.667 1;0.167 0.167 0.833 0.833;0.333 0 0.667 1;0.333 0 0.667 1;0 0 0 0" calcMode="spline"/><animateTransform repeatCount="indefinite" dur="5s" begin="0s" xlink:href="#_R_G_L_3_G" fill="freeze" attributeName="transform" from="0.99206 0.99206" to="0.99206 0.99206" type="scale" additive="sum" keyTimes="0;1" values="0.99206 0.99206;0.99206 0.99206" keySplines="0 0 1 1" calcMode="spline"/><animateTransform repeatCount="indefinite" dur="5s" begin="0s" xlink:href="#_R_G_L_3_G" fill="freeze" attributeName="transform" from="-118 -58.5" to="-118 -58.5" type="translate" additive="sum" keyTimes="0;1" values="-118 -58.5;-118 -58.5" keySplines="0 0 1 1" calcMode="spline"/><animateMotion repeatCount="indefinite" dur="5s" begin="0s" xlink:href="#_R_G_L_3_G_N_7_T_0" fill="freeze" keyTimes="0;0.2;0.8;0.9966667;1" path="M-440 300 C-440,300 450,300 450,300 C450,300 450,300 450,300 C450,300 1330,300 1330,300 C1330,300 1330,300 1330,300 " keyPoints="0;0.5;0.5;1;1" keySplines="0.333 0 0.667 1;0.167 0.167 0.833 0.833;0.333 0 0.667 1;0 0 0 0" calcMode="spline"/><animateTransform repeatCount="indefinite" dur="5s" begin="0s" xlink:href="#_R_G_L_3_G_N_7_T_0" fill="freeze" attributeName="transform" from="1.008 1.008" to="1.008 1.008" type="scale" additive="sum" keyTimes="0;1" values="1.008 1.008;1.008 1.008" keySplines="0 0 1 1" calcMode="spline"/><animate repeatCount="indefinite" dur="5s" begin="0s" xlink:href="#_R_G_L_2_G" fill="freeze" attributeName="opacity" from="0" to="0" keyTimes="0;0.4;0.4033333;0.6;0.6033333;1" values="0;0;1;1;0;0" keySplines="0.167 0.167 0.833 0.833;0.167 0.167 0.833 0.833;0.167 0.167 0.833 0.833;0.167 0.167 0.833 0.833;0 0 0 0" calcMode="spline"/><animate repeatCount="indefinite" dur="5s" begin="0s" xlink:href="#_R_G_L_1_G" fill="freeze" attributeName="opacity" from="0" to="0" keyTimes="0;0.6;0.6033333;0.8;0.8033333;1" values="0;0;1;1;0;0" keySplines="0.167 0.167 0.833 0.833;0.167 0.167 0.833 0.833;0.167 0.167 0.833 0.833;0.167 0.167 0.833 0.833;0 0 0 0" calcMode="spline"/><animate repeatCount="indefinite" dur="5s" begin="0s" xlink:href="#_R_G_L_0_G" fill="freeze" attributeName="opacity" from="0" to="0" keyTimes="0;0.6;0.6033333;0.8;0.8033333;1" values="0;0;1;1;0;0" keySplines="0.167 0.167 0.833 0.833;0.167 0.167 0.833 0.833;0.167 0.167 0.833 0.833;0.167 0.167 0.833 0.833;0 0 0 0" calcMode="spline"/><animate attributeType="XML" attributeName="opacity" dur="5s" from="0" to="1" xlink:href="#time_group"/></defs><g id="_R_G"><g id="_R_G_L_7_G" transform=" translate(450, 300) translate(0, 0)"><path id="_R_G_L_7_G_D_0_P_0" fill="#ffffff" fill-opacity="1" fill-rule="nonzero" d=" M450.53 -301.6 C450.53,-301.6 450.53,298.4 450.53,298.4 C450.53,298.4 -449.47,298.4 -449.47,298.4 C-449.47,298.4 -449.47,-301.6 -449.47,-301.6 C-449.47,-301.6 450.53,-301.6 450.53,-301.6z "/></g><g id="_R_G_L_6_G"><path id="_R_G_L_6_G_D_0_P_0" stroke="#00334e" stroke-linecap="round" stroke-linejoin="round" fill="none" stroke-width="9" stroke-opacity="1" d=" M-399 251 C-399,251 400,250 400,250 "/></g><g id="_R_G_L_5_G" transform=" translate(450.5, 278.088)"><path id="_R_G_L_5_G_D_0_P_0" fill="#fbb83f" fill-opacity="1" fill-rule="nonzero" d=" M0 -185.5 C102.38,-185.5 185.5,-102.38 185.5,0 C185.5,102.38 102.38,185.5 0,185.5 C-102.38,185.5 -185.5,102.38 -185.5,0 C-185.5,-102.38 -102.38,-185.5 0,-185.5z "/></g><g id="_R_G_L_4_G_N_4_N_7_T_0"><g id="_R_G_L_4_G_N_4_T_0"><g id="_R_G_L_4_G" transform=" translate(119.392, 50.493) translate(-112.036, -45.452)"><path id="_R_G_L_4_G_D_0_P_0" fill="#ffffff" fill-opacity="1" fill-rule="nonzero" d=" M0 40.26 C0,40.26 0,87.21 0,87.21 C0,87.21 21.22,90.91 21.22,90.91 C21.22,90.91 26.73,74.86 26.73,74.86 C26.73,74.86 48.45,74.86 48.45,74.86 C48.45,74.86 55.75,90.91 55.75,90.91 C55.75,90.91 164.34,87.21 164.34,87.21 C164.34,87.21 170.61,74.86 170.61,74.86 C170.61,74.86 191.73,74.86 191.73,74.86 C191.73,74.86 199.95,90.91 199.95,90.91 C199.95,90.91 224.07,87.21 224.07,87.21 C224.07,87.21 224.07,47.88 224.07,47.88 C224.07,47.88 176.95,35.15 176.95,35.15 C176.95,35.15 164.34,35.15 164.34,35.15 C164.34,35.15 126.66,0 126.66,0 C126.66,0 55.75,0 55.75,0 C55.75,0 21.22,35.15 21.22,35.15 C21.22,35.15 0,40.26 0,40.26z "/></g></g></g><g id="_R_G_L_3_G_N_7_T_0"><g id="_R_G_L_3_G"><g id="_R_G_L_3_G_L_0_G" transform=" translate(118, 58.261) translate(-118, -58.258)"><path id="_R_G_L_3_G_L_0_G_D_0_P_0" fill="#00334e" fill-opacity="1" fill-rule="nonzero" d=" M146.37 52.28 C146.37,54.76 144.36,56.77 141.89,56.77 C141.89,56.77 76.16,56.77 76.16,56.77 C75.47,56.77 74.78,56.6 74.16,56.29 C74.16,56.29 62.21,50.32 62.21,50.32 C59.99,49.23 59.07,46.55 60.15,44.33 C61.24,42.1 63.93,41.18 66.15,42.27 C66.15,42.27 66.21,42.3 66.21,42.3 C66.21,42.3 77.22,47.8 77.22,47.8 C77.22,47.8 141.89,47.8 141.89,47.8 C144.36,47.8 146.37,49.81 146.37,52.28z  M227.04 85.15 C227.04,87.62 225.03,89.63 222.56,89.63 C222.56,89.63 211.65,89.63 211.65,89.63 C209.17,77.51 197.33,69.68 185.2,72.16 C176.41,73.96 169.54,80.83 167.74,89.63 C167.74,89.63 68.24,89.63 68.24,89.63 C65.76,77.51 53.92,69.68 41.8,72.16 C33,73.96 26.13,80.83 24.33,89.63 C24.33,89.63 13.42,89.63 13.42,89.63 C10.95,89.63 8.94,87.62 8.94,85.15 C8.94,85.15 8.94,53.31 8.94,53.31 C8.94,51.25 10.34,49.46 12.33,48.96 C12.33,48.96 27.04,45.28 27.04,45.28 C29.4,44.69 31.56,43.47 33.29,41.74 C33.29,41.74 64.75,10.28 64.75,10.28 C65.59,9.44 66.74,8.96 67.93,8.96 C67.93,8.96 132.2,8.96 132.2,8.96 C133.39,8.96 134.53,9.44 135.37,10.28 C135.37,10.28 166.85,41.76 166.85,41.76 C168.81,43.72 171.47,44.82 174.25,44.82 C174.25,44.82 176.36,44.82 176.36,44.82 C180.88,44.82 185.38,45.37 189.76,46.46 C189.76,46.46 223.64,54.93 223.64,54.93 C225.64,55.43 227.04,57.23 227.04,59.28 C227.04,59.28 227.04,85.15 227.04,85.15z  M189.69 107.56 C182.27,107.56 176.25,101.54 176.25,94.11 C176.25,86.68 182.27,80.67 189.69,80.67 C197.12,80.67 203.14,86.68 203.14,94.11 C203.13,101.53 197.11,107.55 189.69,107.56  M46.29 107.56 C38.86,107.56 32.84,101.54 32.84,94.11 C32.84,86.68 38.86,80.67 46.29,80.67 C53.71,80.67 59.73,86.68 59.73,94.11 C59.72,101.53 53.71,107.55 46.29,107.56  M225.82 46.24 C225.82,46.24 191.94,37.77 191.94,37.77 C186.84,36.5 181.61,35.85 176.36,35.85 C176.36,35.85 174.25,35.85 174.25,35.85 C173.85,35.85 173.46,35.7 173.18,35.42 C173.18,35.42 141.71,3.94 141.71,3.94 C139.19,1.41 135.77,-0.01 132.2,0 C132.2,0 67.93,0 67.93,0 C64.36,-0.01 60.94,1.41 58.42,3.94 C58.42,3.94 26.95,35.41 26.95,35.41 C26.38,35.99 25.65,36.4 24.86,36.6 C24.86,36.6 10.16,40.28 10.16,40.28 C4.18,41.78 -0.01,47.16 0,53.32 C0,53.32 0,85.15 0,85.15 C0.01,92.56 6.01,98.57 13.42,98.59 C13.42,98.59 24.33,98.59 24.33,98.59 C26.81,110.72 38.65,118.54 50.77,116.06 C59.57,114.26 66.44,107.39 68.24,98.59 C68.24,98.59 167.74,98.59 167.74,98.59 C170.22,110.72 182.06,118.54 194.18,116.06 C202.98,114.26 209.85,107.39 211.65,98.59 C211.65,98.59 222.56,98.59 222.56,98.59 C229.98,98.59 235.99,92.57 236,85.15 C236,85.15 236,59.28 236,59.28 C236.01,53.11 231.81,47.73 225.82,46.24 "/></g></g></g><g id="_R_G_L_2_G" transform=" translate(451, 278.088) translate(-100, -100)"><path id="_R_G_L_2_G_D_0_P_0" fill="#00334e" fill-opacity="1" fill-rule="nonzero" d=" M144.26 10.2 C144.26,10.2 144.26,10.2 144.26,10.2 C144.26,10.2 109.86,44.6 109.86,44.6 C109.86,44.6 109.86,66.86 109.86,66.86 C109.86,66.86 133.14,90.14 133.14,90.14 C133.14,90.14 155.39,90.14 155.39,90.14 C155.39,90.14 189.8,55.73 189.8,55.73 C189.8,55.73 184.51,50.44 184.51,50.44 C184.51,50.44 179.9,55.05 179.9,55.05 C181.04,56.75 180.85,58.93 179.45,60.33 C178.64,61.13 177.58,61.57 176.46,61.57 C175.34,61.57 174.28,61.13 173.47,60.33 C173.47,60.33 139.67,26.53 139.67,26.53 C138.02,24.88 138.02,22.2 139.67,20.55 C140.44,19.78 141.46,19.36 142.55,19.36 C143.4,19.36 144.23,19.61 144.95,20.09 C144.95,20.09 149.56,15.49 149.56,15.49 C149.56,15.49 144.26,10.2 144.26,10.2 C144.26,10.2 144.26,10.2 144.26,10.2z  M107.24 76.2 C107.24,76.2 107.24,76.2 107.24,76.2 C107.24,76.2 94.71,88.73 94.71,88.73 C94.71,88.73 111.27,105.29 111.27,105.29 C111.27,105.29 123.81,92.75 123.81,92.75 C123.81,92.75 107.24,76.2 107.24,76.2 C107.24,76.2 107.24,76.2 107.24,76.2z  M111.27 115.49 C110.14,115.49 109.08,115.05 108.28,114.25 C108.28,114.25 85.74,91.72 85.74,91.72 C84.95,90.92 84.51,89.86 84.51,88.73 C84.51,87.6 84.95,86.54 85.74,85.75 C85.74,85.75 101.66,69.83 101.66,69.83 C101.66,69.83 101.65,69.81 101.65,69.81 C101.53,69.43 101.4,69.03 101.4,68.61 C101.4,68.61 101.4,42.85 101.4,42.85 C101.4,41.73 101.85,40.67 102.65,39.86 C102.65,39.86 141.28,1.24 141.28,1.24 C142.08,0.44 143.14,0 144.26,0 C145.39,0 146.45,0.44 147.25,1.24 C147.25,1.24 155.54,9.51 155.54,9.51 C155.54,9.51 163.81,1.24 163.81,1.24 C164.61,0.44 165.67,0 166.8,0 C167.93,0 168.99,0.44 169.79,1.24 C171.44,2.88 171.44,5.56 169.79,7.21 C169.79,7.21 151.04,25.95 151.04,25.95 C151.04,25.95 174.05,48.95 174.05,48.95 C174.05,48.95 192.79,30.21 192.79,30.21 C193.58,29.41 194.65,28.97 195.78,28.97 C196.9,28.97 197.97,29.41 198.76,30.21 C200.41,31.86 200.41,34.54 198.76,36.19 C198.76,36.19 190.48,44.47 190.48,44.47 C190.48,44.47 198.76,52.74 198.76,52.74 C199.56,53.54 200,54.6 200,55.73 C200,56.86 199.56,57.92 198.76,58.72 C198.76,58.72 160.13,97.35 160.13,97.35 C159.35,98.14 158.26,98.59 157.15,98.59 C157.15,98.59 131.39,98.59 131.39,98.59 C130.97,98.59 130.59,98.48 130.16,98.35 C130.16,98.35 114.26,114.25 114.26,114.25 C113.46,115.05 112.4,115.49 111.27,115.49z  M49.29 134.15 C49.29,134.15 49.29,134.15 49.29,134.15 C49.29,134.15 44,139.44 44,139.44 C44,139.44 60.56,156 60.56,156 C60.56,156 65.86,150.7 65.86,150.7 C65.86,150.7 49.29,134.15 49.29,134.15 C49.29,134.15 49.29,134.15 49.29,134.15z  M60.56 166.2 C59.43,166.2 58.37,165.76 57.57,164.96 C57.57,164.96 35.04,142.42 35.04,142.42 C34.24,141.63 33.81,140.56 33.81,139.44 C33.81,138.31 34.24,137.25 35.04,136.45 C35.04,136.45 46.31,125.18 46.31,125.18 C47.11,124.38 48.17,123.94 49.3,123.94 C50.43,123.94 51.49,124.38 52.29,125.18 C52.29,125.18 74.82,147.72 74.82,147.72 C75.62,148.52 76.06,149.58 76.06,150.7 C76.06,151.83 75.62,152.89 74.82,153.69 C74.82,153.69 63.55,164.96 63.55,164.96 C62.76,165.76 61.7,166.2 60.56,166.2z  M60.56 94.71 C60.56,94.71 60.56,94.71 60.56,94.71 C60.56,94.71 20.82,134.45 20.82,134.45 C18.07,137.2 18.07,141.67 20.82,144.42 C20.82,144.42 23.7,147.3 23.7,147.3 C23.7,147.3 23.72,147.32 23.72,147.32 C23.72,147.32 52.6,176.2 52.6,176.2 C52.62,176.22 52.64,176.23 52.66,176.24 C52.67,176.25 52.69,176.26 52.7,176.27 C52.72,176.29 52.73,176.31 52.75,176.33 C52.76,176.35 52.76,176.36 52.77,176.38 C52.77,176.38 55.59,179.19 55.59,179.19 C56.91,180.51 58.68,181.24 60.56,181.24 C62.44,181.24 64.22,180.51 65.55,179.19 C65.55,179.19 105.29,139.44 105.29,139.44 C105.29,139.44 60.56,94.71 60.56,94.71 C60.56,94.71 60.56,94.71 60.56,94.71z  M33.2 200 C32.07,200 31.01,199.56 30.21,198.76 C29.41,197.96 28.97,196.9 28.97,195.78 C28.97,194.65 29.41,193.59 30.21,192.79 C30.21,192.79 43.73,179.27 43.73,179.27 C43.73,179.27 20.73,156.28 20.73,156.28 C20.73,156.28 7.21,169.79 7.21,169.79 C6.42,170.58 5.35,171.02 4.22,171.02 C3.1,171.02 2.04,170.58 1.24,169.79 C-0.41,168.14 -0.41,165.46 1.24,163.81 C1.24,163.81 14.76,150.29 14.76,150.29 C8.82,144.25 8.85,134.46 14.84,128.48 C14.84,128.48 57.57,85.75 57.57,85.75 C58.37,84.95 59.43,84.51 60.56,84.51 C61.69,84.51 62.75,84.95 63.55,85.75 C63.55,85.75 114.26,136.45 114.26,136.45 C115.05,137.25 115.49,138.31 115.49,139.44 C115.49,140.56 115.05,141.63 114.26,142.42 C114.26,142.42 71.52,185.16 71.52,185.16 C68.59,188.08 64.7,189.69 60.56,189.69 C56.47,189.69 52.62,188.11 49.71,185.24 C49.71,185.24 36.19,198.76 36.19,198.76 C35.39,199.56 34.33,200 33.2,200z "/></g><g id="_R_G_L_1_G" transform=" translate(408.745, 320.342) translate(-57.747, -57.746)"><path id="_R_G_L_1_G_D_0_P_0" fill="#00334e" fill-opacity="1" fill-rule="nonzero" d=" M49.3 49.64 C49.3,49.64 44.01,54.93 44.01,54.93 C44.01,54.93 60.56,71.49 60.56,71.49 C60.56,71.49 65.86,66.2 65.86,66.2 C65.86,66.2 49.3,49.64 49.3,49.64 C49.3,49.64 49.3,49.64 49.3,49.64z  M60.56 81.69 C59.44,81.69 58.38,81.25 57.58,80.45 C57.58,80.45 35.04,57.92 35.04,57.92 C33.39,56.27 33.39,53.59 35.04,51.94 C35.04,51.94 46.31,40.67 46.31,40.67 C47.11,39.88 48.17,39.44 49.3,39.44 C50.43,39.44 51.49,39.88 52.29,40.67 C52.29,40.67 74.82,63.21 74.82,63.21 C76.47,64.86 76.47,67.54 74.82,69.18 C74.82,69.18 63.55,80.45 63.55,80.45 C62.76,81.25 61.69,81.69 60.56,81.69z  M60.56 10.2 C60.56,10.2 20.82,49.94 20.82,49.94 C18.07,52.69 18.07,57.16 20.82,59.91 C20.82,59.91 23.7,62.79 23.7,62.79 C23.7,62.79 23.71,62.8 23.71,62.8 C23.72,62.8 23.72,62.82 23.72,62.82 C23.72,62.82 52.6,91.7 52.6,91.7 C52.62,91.71 52.64,91.72 52.65,91.73 C52.67,91.74 52.69,91.75 52.7,91.76 C52.72,91.78 52.73,91.8 52.75,91.82 C52.76,91.84 52.76,91.86 52.78,91.87 C52.78,91.87 55.59,94.68 55.59,94.68 C56.91,96 58.68,96.73 60.56,96.73 C62.45,96.73 64.22,96 65.55,94.68 C65.55,94.68 105.3,54.93 105.3,54.93 C105.3,54.93 60.56,10.2 60.56,10.2z  M33.21 115.49 C32.07,115.49 31.01,115.05 30.21,114.25 C29.41,113.46 28.98,112.39 28.98,111.27 C28.98,110.14 29.41,109.08 30.21,108.28 C30.21,108.28 43.73,94.77 43.73,94.77 C43.73,94.77 20.73,71.77 20.73,71.77 C20.73,71.77 7.22,85.28 7.22,85.28 C6.42,86.07 5.35,86.51 4.22,86.51 C3.1,86.51 2.04,86.07 1.24,85.28 C0.44,84.48 0,83.42 0,82.29 C0,81.16 0.44,80.1 1.24,79.3 C1.24,79.3 14.76,65.79 14.76,65.79 C11.88,62.86 10.3,58.98 10.32,54.86 C10.33,50.74 11.94,46.87 14.84,43.97 C14.84,43.97 57.58,1.24 57.58,1.24 C58.38,0.44 59.44,0 60.56,0 C61.69,0 62.75,0.44 63.55,1.24 C63.55,1.24 114.26,51.94 114.26,51.94 C115.91,53.59 115.91,56.27 114.26,57.92 C114.26,57.92 71.52,100.65 71.52,100.65 C68.59,103.57 64.7,105.18 60.56,105.18 C56.47,105.18 52.62,103.6 49.71,100.73 C49.71,100.73 36.19,114.25 36.19,114.25 C35.39,115.05 34.33,115.49 33.21,115.49z "/></g><g id="_R_G_L_0_G_N_2_T_0" transform=" translate(408.745, 320.342) translate(-57.747, -57.746)"><g id="_R_G_L_0_G" transform=" translate(134.196, -19.222) translate(-65.788, -65.305)"><path id="_R_G_L_0_G_D_0_P_0" fill="#00334e" fill-opacity="1" fill-rule="nonzero" d=" M42.86 42.22 C42.86,42.22 8.45,76.62 8.45,76.62 C8.45,76.62 8.45,98.88 8.45,98.88 C8.45,98.88 31.73,122.16 31.73,122.16 C31.73,122.16 53.99,122.16 53.99,122.16 C53.99,122.16 88.4,87.75 88.4,87.75 C88.4,87.75 83.1,82.46 83.1,82.46 C83.1,82.46 78.5,87.07 78.5,87.07 C79.63,88.77 79.45,90.94 78.04,92.35 C77.24,93.15 76.18,93.59 75.05,93.59 C73.93,93.59 72.87,93.15 72.06,92.35 C72.06,92.35 38.26,58.55 38.26,58.55 C36.62,56.9 36.62,54.22 38.26,52.57 C39.03,51.8 40.05,51.38 41.14,51.38 C41.99,51.38 42.82,51.63 43.54,52.11 C43.54,52.11 48.15,47.51 48.15,47.51 C48.15,47.51 42.86,42.22 42.86,42.22 C42.86,42.22 42.86,42.22 42.86,42.22z  M55.74 130.61 C55.74,130.61 29.98,130.61 29.98,130.61 C29.57,130.61 29.18,130.5 28.76,130.37 C23.19,124.74 19.62,121.03 16.75,118.04 C11.5,112.59 8.6,109.58 0.25,101.85 C0.25,101.85 0.25,101.85 0.25,101.85 C0.13,101.46 0,101.05 0,100.63 C0,100.63 0,74.87 0,74.87 C0,73.75 0.44,72.69 1.24,71.88 C1.24,71.88 39.87,33.26 39.87,33.26 C40.67,32.46 41.73,32.02 42.86,32.02 C43.99,32.02 45.05,32.46 45.85,33.26 C45.85,33.26 54.13,41.53 54.13,41.53 C54.13,41.53 95.41,1.24 95.41,1.24 C96.21,0.44 97.27,0 98.4,0 C99.53,0 100.59,0.44 101.39,1.24 C102.19,2.04 102.63,3.1 102.63,4.22 C102.63,5.35 102.19,6.41 101.39,7.21 C101.39,7.21 49.64,57.97 49.64,57.97 C49.64,57.97 72.64,80.97 72.64,80.97 C72.64,80.97 124.36,30.26 124.36,30.26 C125.16,29.46 126.22,29.02 127.35,29.02 C128.48,29.02 129.54,29.46 130.34,30.26 C131.99,31.91 131.99,34.59 130.34,36.24 C130.34,36.24 89.08,76.49 89.08,76.49 C89.08,76.49 97.36,84.76 97.36,84.76 C98.15,85.56 98.59,86.63 98.59,87.75 C98.59,88.88 98.15,89.94 97.36,90.74 C97.36,90.74 58.73,129.37 58.73,129.37 C57.94,130.16 56.85,130.61 55.74,130.61z "/></g></g></g><g id="time_group"/></svg>