<svg xmlns="http://www.w3.org/2000/svg" xmlns:xlink="http://www.w3.org/1999/xlink" preserveAspectRatio="xMidYMid meet" width="900" height="600" viewBox="0 0 900 600" style="width:100%;height:100%"><defs><animateMotion repeatCount="indefinite" dur="5s" begin="0s" xlink:href="#_R_G_L_5_G" fill="freeze" keyTimes="0;0.2;0.8;0.9966667;1" path="M-440 300 C-440,300 450,300 450,300 C450,300 450,300 450,300 C450,300 1330,300 1330,300 C1330,300 1330,300 1330,300 " keyPoints="0;0.5;0.5;1;1" keySplines="0.333 0 0.667 1;0.167 0.167 0.833 0.833;0.333 0 0.667 1;0 0 0 0" calcMode="spline"/><animateTransform repeatCount="indefinite" dur="5s" begin="0s" xlink:href="#_R_G_L_5_G" fill="freeze" attributeName="transform" from="1.008 1.008" to="1.008 1.008" type="scale" additive="sum" keyTimes="0;1" values="1.008 1.008;1.008 1.008" keySplines="0 0 1 1" calcMode="spline"/><animate repeatCount="indefinite" dur="5s" begin="0s" xlink:href="#_R_G_L_4_G" fill="freeze" attributeName="opacity" from="0" to="0" keyTimes="0;0.2966667;0.3;0.9;0.9033333;1" values="0;0;1;1;0;0" keySplines="0.167 0.167 0.833 0.833;0.167 0.167 0.833 0.833;0.167 0.167 0.833 0.833;0.167 0.167 0.833 0.833;0 0 0 0" calcMode="spline"/><animateTransform repeatCount="indefinite" dur="5s" begin="0s" xlink:href="#_R_G_L_4_G" fill="freeze" attributeName="transform" from="0 0" to="0 0" type="scale" additive="sum" keyTimes="0;0.3;0.4;0.8;0.9;1" values="0 0;0 0;1 1;1 1;0 0;0 0" keySplines="0.333 0 0.667 1;0.333 0 0.667 1;0.167 0.167 0.833 0.833;0.333 0 0.667 1;0 0 0 0" calcMode="spline"/><animateMotion repeatCount="indefinite" dur="5s" begin="0s" xlink:href="#_R_G_L_3_G_N_3_T_0" fill="freeze" keyTimes="0;0.0666667;0.2333333;0.4;0.8;0.8333333;0.9966667;1" path="M0 185.01 C0,185.01 0,185.01 0,185.01 C0,185.01 283.51,185.01 283.51,185.01 C283.51,185.01 1.49,185.01 1.49,185.01 C1.49,185.01 1.49,185.01 1.49,185.01 C1.49,185.01 -284.2,185.01 -284.2,185.01 C-284.2,185.01 1.49,185.01 1.49,185.01 C1.49,185.01 1.49,185.01 1.49,185.01 " keyPoints="0;0;0.25;0.5;0.5;0.75;1;1" keySplines="0.333 0 0.667 1;0.333 0 0.667 1;0.333 0 0.667 1;0.167 0.167 0.833 0.833;0.333 0 0.667 1;0.333 0 0.667 1;0 0 0 0" calcMode="spline"/><animateTransform repeatCount="indefinite" dur="5s" begin="0s" xlink:href="#_R_G_L_3_G_N_3_T_0" fill="freeze" attributeName="transform" from="0.99206 0.99206" to="0.99206 0.99206" type="scale" additive="sum" keyTimes="0;1" values="0.99206 0.99206;0.99206 0.99206" keySplines="0 0 1 1" calcMode="spline"/><animateTransform repeatCount="indefinite" dur="5s" begin="0s" xlink:href="#_R_G_L_3_G_N_3_T_0" fill="freeze" attributeName="transform" from="-118 -58.5" to="-118 -58.5" type="translate" additive="sum" keyTimes="0;1" values="-118 -58.5;-118 -58.5" keySplines="0 0 1 1" calcMode="spline"/><animateMotion repeatCount="indefinite" dur="5s" begin="0s" xlink:href="#_R_G_L_3_G_N_3_N_6_T_0" fill="freeze" keyTimes="0;0.2;0.8;0.9966667;1" path="M-440 300 C-440,300 450,300 450,300 C450,300 450,300 450,300 C450,300 1330,300 1330,300 C1330,300 1330,300 1330,300 " keyPoints="0;0.5;0.5;1;1" keySplines="0.333 0 0.667 1;0.167 0.167 0.833 0.833;0.333 0 0.667 1;0 0 0 0" calcMode="spline"/><animateTransform repeatCount="indefinite" dur="5s" begin="0s" xlink:href="#_R_G_L_3_G_N_3_N_6_T_0" fill="freeze" attributeName="transform" from="1.008 1.008" to="1.008 1.008" type="scale" additive="sum" keyTimes="0;1" values="1.008 1.008;1.008 1.008" keySplines="0 0 1 1" calcMode="spline"/><animateMotion repeatCount="indefinite" dur="5s" begin="0s" xlink:href="#_R_G_L_2_G" fill="freeze" keyTimes="0;0.0666667;0.2333333;0.4;0.8;0.8333333;0.9966667;1" path="M0 185.01 C0,185.01 0,185.01 0,185.01 C0,185.01 283.51,185.01 283.51,185.01 C283.51,185.01 1.49,185.01 1.49,185.01 C1.49,185.01 1.49,185.01 1.49,185.01 C1.49,185.01 -284.2,185.01 -284.2,185.01 C-284.2,185.01 1.49,185.01 1.49,185.01 C1.49,185.01 1.49,185.01 1.49,185.01 " keyPoints="0;0;0.25;0.5;0.5;0.75;1;1" keySplines="0.333 0 0.667 1;0.333 0 0.667 1;0.333 0 0.667 1;0.167 0.167 0.833 0.833;0.333 0 0.667 1;0.333 0 0.667 1;0 0 0 0" calcMode="spline"/><animateTransform repeatCount="indefinite" dur="5s" begin="0s" xlink:href="#_R_G_L_2_G" fill="freeze" attributeName="transform" from="0.99206 0.99206" to="0.99206 0.99206" type="scale" additive="sum" keyTimes="0;1" values="0.99206 0.99206;0.99206 0.99206" keySplines="0 0 1 1" calcMode="spline"/><animateTransform repeatCount="indefinite" dur="5s" begin="0s" xlink:href="#_R_G_L_2_G" fill="freeze" attributeName="transform" from="-118 -58.5" to="-118 -58.5" type="translate" additive="sum" keyTimes="0;1" values="-118 -58.5;-118 -58.5" keySplines="0 0 1 1" calcMode="spline"/><animateMotion repeatCount="indefinite" dur="5s" begin="0s" xlink:href="#_R_G_L_2_G_N_6_T_0" fill="freeze" keyTimes="0;0.2;0.8;0.9966667;1" path="M-440 300 C-440,300 450,300 450,300 C450,300 450,300 450,300 C450,300 1330,300 1330,300 C1330,300 1330,300 1330,300 " keyPoints="0;0.5;0.5;1;1" keySplines="0.333 0 0.667 1;0.167 0.167 0.833 0.833;0.333 0 0.667 1;0 0 0 0" calcMode="spline"/><animateTransform repeatCount="indefinite" dur="5s" begin="0s" xlink:href="#_R_G_L_2_G_N_6_T_0" fill="freeze" attributeName="transform" from="1.008 1.008" to="1.008 1.008" type="scale" additive="sum" keyTimes="0;1" values="1.008 1.008;1.008 1.008" keySplines="0 0 1 1" calcMode="spline"/><animate repeatCount="indefinite" dur="5s" begin="0s" xlink:href="#_R_G_L_1_G" fill="freeze" attributeName="opacity" from="0" to="0" keyTimes="0;0.4;0.4033333;0.7966667;0.8;1" values="0;0;1;1;0;0" keySplines="0.167 0.167 0.833 0.833;0.167 0.167 0.833 0.833;0.167 0.167 0.833 0.833;0.167 0.167 0.833 0.833;0 0 0 0" calcMode="spline"/><animateTransform repeatCount="indefinite" dur="5s" begin="0s" xlink:href="#_R_G_L_1_G" fill="freeze" attributeName="transform" from="0" to="0" type="rotate" additive="sum" keyTimes="0;0.4033333;0.5;0.5333333;0.6666667;0.7966667;1" values="0;0;-30;0;-85;0;0" keySplines="0.167 0.167 0.833 0.833;0.167 0.167 0.833 0.833;0.167 0.167 0.833 0.833;0.167 0.167 0.833 0.833;0.167 0.167 0.833 0.833;0 0 0 0" calcMode="spline"/><animate repeatCount="indefinite" dur="5s" begin="0s" xlink:href="#_R_G_L_0_G" fill="freeze" attributeName="opacity" from="0" to="0" keyTimes="0;0.4;0.4033333;0.7966667;0.8;1" values="0;0;1;1;0;0" keySplines="0.167 0.167 0.833 0.833;0.167 0.167 0.833 0.833;0.167 0.167 0.833 0.833;0.167 0.167 0.833 0.833;0 0 0 0" calcMode="spline"/><animate attributeType="XML" attributeName="opacity" dur="5s" from="0" to="1" xlink:href="#time_group"/></defs><g id="_R_G"><g id="_R_G_L_6_G" transform=" translate(450, 300) translate(0, 0)"><path id="_R_G_L_6_G_D_0_P_0" fill="#ffffff" fill-opacity="1" fill-rule="nonzero" d=" M450.53 -301.6 C450.53,-301.6 450.53,298.4 450.53,298.4 C450.53,298.4 -449.47,298.4 -449.47,298.4 C-449.47,298.4 -449.47,-301.6 -449.47,-301.6 C-449.47,-301.6 450.53,-301.6 450.53,-301.6z "/></g><g id="_R_G_L_5_G"><path id="_R_G_L_5_G_D_0_P_0" stroke="#00334e" stroke-linecap="round" stroke-linejoin="round" fill="none" stroke-width="9" stroke-opacity="1" d=" M-399 251 C-399,251 400,250 400,250 "/></g><g id="_R_G_L_4_G" transform=" translate(450.5, 278.088)"><path id="_R_G_L_4_G_D_0_P_0" fill="#fbb83f" fill-opacity="1" fill-rule="nonzero" d=" M0 -185.5 C102.38,-185.5 185.5,-102.38 185.5,0 C185.5,102.38 102.38,185.5 0,185.5 C-102.38,185.5 -185.5,102.38 -185.5,0 C-185.5,-102.38 -102.38,-185.5 0,-185.5z "/></g><g id="_R_G_L_3_G_N_3_N_6_T_0"><g id="_R_G_L_3_G_N_3_T_0"><g id="_R_G_L_3_G" transform=" translate(119.392, 50.493) translate(-112.036, -45.452)"><path id="_R_G_L_3_G_D_0_P_0" fill="#ffffff" fill-opacity="1" fill-rule="nonzero" d=" M0 40.26 C0,40.26 0,87.21 0,87.21 C0,87.21 21.22,90.91 21.22,90.91 C21.22,90.91 26.73,74.86 26.73,74.86 C26.73,74.86 48.45,74.86 48.45,74.86 C48.45,74.86 55.75,90.91 55.75,90.91 C55.75,90.91 164.34,87.21 164.34,87.21 C164.34,87.21 170.61,74.86 170.61,74.86 C170.61,74.86 191.73,74.86 191.73,74.86 C191.73,74.86 199.95,90.91 199.95,90.91 C199.95,90.91 224.07,87.21 224.07,87.21 C224.07,87.21 224.07,47.88 224.07,47.88 C224.07,47.88 176.95,35.15 176.95,35.15 C176.95,35.15 164.34,35.15 164.34,35.15 C164.34,35.15 126.66,0 126.66,0 C126.66,0 55.75,0 55.75,0 C55.75,0 21.22,35.15 21.22,35.15 C21.22,35.15 0,40.26 0,40.26z "/></g></g></g><g id="_R_G_L_2_G_N_6_T_0"><g id="_R_G_L_2_G"><g id="_R_G_L_2_G_L_0_G" transform=" translate(118, 58.261) translate(-118, -58.258)"><path id="_R_G_L_2_G_L_0_G_D_0_P_0" fill="#00334e" fill-opacity="1" fill-rule="nonzero" d=" M146.37 52.28 C146.37,54.76 144.36,56.77 141.89,56.77 C141.89,56.77 76.16,56.77 76.16,56.77 C75.47,56.77 74.78,56.6 74.16,56.29 C74.16,56.29 62.21,50.32 62.21,50.32 C59.99,49.23 59.07,46.55 60.15,44.33 C61.24,42.1 63.93,41.18 66.15,42.27 C66.15,42.27 66.21,42.3 66.21,42.3 C66.21,42.3 77.22,47.8 77.22,47.8 C77.22,47.8 141.89,47.8 141.89,47.8 C144.36,47.8 146.37,49.81 146.37,52.28z  M227.04 85.15 C227.04,87.62 225.03,89.63 222.56,89.63 C222.56,89.63 211.65,89.63 211.65,89.63 C209.17,77.51 197.33,69.68 185.2,72.16 C176.41,73.96 169.54,80.83 167.74,89.63 C167.74,89.63 68.24,89.63 68.24,89.63 C65.76,77.51 53.92,69.68 41.8,72.16 C33,73.96 26.13,80.83 24.33,89.63 C24.33,89.63 13.42,89.63 13.42,89.63 C10.95,89.63 8.94,87.62 8.94,85.15 C8.94,85.15 8.94,53.31 8.94,53.31 C8.94,51.25 10.34,49.46 12.33,48.96 C12.33,48.96 27.04,45.28 27.04,45.28 C29.4,44.69 31.56,43.47 33.29,41.74 C33.29,41.74 64.75,10.28 64.75,10.28 C65.59,9.44 66.74,8.96 67.93,8.96 C67.93,8.96 132.2,8.96 132.2,8.96 C133.39,8.96 134.53,9.44 135.37,10.28 C135.37,10.28 166.85,41.76 166.85,41.76 C168.81,43.72 171.47,44.82 174.25,44.82 C174.25,44.82 176.36,44.82 176.36,44.82 C180.88,44.82 185.38,45.37 189.76,46.46 C189.76,46.46 223.64,54.93 223.64,54.93 C225.64,55.43 227.04,57.23 227.04,59.28 C227.04,59.28 227.04,85.15 227.04,85.15z  M189.69 107.56 C182.27,107.56 176.25,101.54 176.25,94.11 C176.25,86.68 182.27,80.67 189.69,80.67 C197.12,80.67 203.14,86.68 203.14,94.11 C203.13,101.53 197.11,107.55 189.69,107.56  M46.29 107.56 C38.86,107.56 32.84,101.54 32.84,94.11 C32.84,86.68 38.86,80.67 46.29,80.67 C53.71,80.67 59.73,86.68 59.73,94.11 C59.72,101.53 53.71,107.55 46.29,107.56  M225.82 46.24 C225.82,46.24 191.94,37.77 191.94,37.77 C186.84,36.5 181.61,35.85 176.36,35.85 C176.36,35.85 174.25,35.85 174.25,35.85 C173.85,35.85 173.46,35.7 173.18,35.42 C173.18,35.42 141.71,3.94 141.71,3.94 C139.19,1.41 135.77,-0.01 132.2,0 C132.2,0 67.93,0 67.93,0 C64.36,-0.01 60.94,1.41 58.42,3.94 C58.42,3.94 26.95,35.41 26.95,35.41 C26.38,35.99 25.65,36.4 24.86,36.6 C24.86,36.6 10.16,40.28 10.16,40.28 C4.18,41.78 -0.01,47.16 0,53.32 C0,53.32 0,85.15 0,85.15 C0.01,92.56 6.01,98.57 13.42,98.59 C13.42,98.59 24.33,98.59 24.33,98.59 C26.81,110.72 38.65,118.54 50.77,116.06 C59.57,114.26 66.44,107.39 68.24,98.59 C68.24,98.59 167.74,98.59 167.74,98.59 C170.22,110.72 182.06,118.54 194.18,116.06 C202.98,114.26 209.85,107.39 211.65,98.59 C211.65,98.59 222.56,98.59 222.56,98.59 C229.98,98.59 235.99,92.57 236,85.15 C236,85.15 236,59.28 236,59.28 C236.01,53.11 231.81,47.73 225.82,46.24 "/></g></g></g><g id="_R_G_L_1_G_N_1_T_0" transform=" translate(450, 274.837) translate(-118, -118)"><g id="_R_G_L_1_G" transform=" translate(118, 118)"><path id="_R_G_L_1_G_D_0_P_0" stroke="#0c334e" stroke-linecap="round" stroke-linejoin="round" fill="none" stroke-width="9" stroke-opacity="1" d=" M-71.21 -71.21 C-71.21,-71.21 71.21,71.21 71.21,71.21 "/></g></g><g id="_R_G_L_0_G" transform=" translate(450, 274.837) translate(-118, -118)"><g id="_R_G_L_0_G_L_8_G" transform=" translate(61.172, 119.064) translate(-56.801, -113.602)"><path id="_R_G_L_0_G_L_8_G_D_0_P_0" fill="#fbb83f" fill-opacity="1" fill-rule="nonzero" d=" M113.14 227.43 C113.14,227.43 113.17,213.34 113.17,213.34 C113.17,213.34 113.2,198.67 113.2,198.67 C113.2,198.67 113.37,114.03 113.37,114.03 C113.37,114.03 113.6,0.23 113.6,0.23 C50.86,0.1 -0.1,50.86 -0.23,113.6 C-0.36,176.34 50.4,227.31 113.14,227.43 "/></g><g id="_R_G_L_0_G_L_7_G" transform=" translate(117.994, 118) translate(-21.718, -21.718)"><path id="_R_G_L_0_G_L_7_G_D_0_P_0" fill="#fbb83f" fill-opacity="1" fill-rule="nonzero" d=" M43.44 21.72 C43.44,33.71 33.71,43.44 21.72,43.44 C9.72,43.44 0,33.71 0,21.72 C0,9.72 9.72,0 21.72,0 C33.71,0 43.44,9.72 43.44,21.72 "/></g><g id="_R_G_L_0_G_L_6_G" transform=" translate(215.576, 81.727) translate(-0.001, 0)"><path id="_R_G_L_0_G_L_6_G_D_0_P_0" fill="#00334e" fill-opacity="1" fill-rule="nonzero" d=" M0 0 C0,0 0,0 0,0 C0,0 0,0 0,0 C0,0 0,0 0,0z "/></g><g id="_R_G_L_0_G_L_5_G" transform=" translate(117.988, 215.594) translate(-83.213, -20.406)"><path id="_R_G_L_0_G_L_5_G_D_0_P_0" fill="#00334e" fill-opacity="1" fill-rule="nonzero" d=" M158.83 1.25 C116.67,42.05 49.75,42.05 7.59,1.25 C5.81,-0.46 2.97,-0.41 1.25,1.38 C-0.46,3.16 -0.41,5.99 1.37,7.71 C23.31,28.98 52.67,40.85 83.21,40.81 C113.76,40.85 143.12,28.97 165.06,7.71 C166.84,5.99 166.89,3.16 165.17,1.37 C163.45,-0.41 160.62,-0.46 158.83,1.25 "/></g><g id="_R_G_L_0_G_L_4_G" transform=" translate(219.153, 75.686) translate(-8.043, -5.969)"><path id="_R_G_L_0_G_L_4_G_D_0_P_0" fill="#00334e" fill-opacity="1" fill-rule="nonzero" d=" M4.49 11.94 C5.08,11.94 5.67,11.82 6.22,11.59 C6.22,11.59 13.34,8.61 13.34,8.61 C15.62,7.65 16.69,5.03 15.74,2.75 C14.78,0.47 12.16,-0.61 9.88,0.35 C9.88,0.35 2.76,3.33 2.76,3.33 C1.66,3.78 0.79,4.66 0.34,5.76 C0.11,6.3 0,6.89 0,7.48 C0.01,9.95 2.02,11.95 4.49,11.94 "/></g><g id="_R_G_L_0_G_L_3_G" transform=" translate(215.527, 158.008) translate(-8.052, -5.948)"><path id="_R_G_L_0_G_L_3_G_D_0_P_0" fill="#00334e" fill-opacity="1" fill-rule="nonzero" d=" M13.32 3.26 C13.32,3.26 6.19,0.34 6.19,0.34 C3.89,-0.6 1.27,0.49 0.34,2.79 C-0.6,5.08 0.49,7.7 2.79,8.64 C2.79,8.64 9.93,11.57 9.93,11.57 C10.47,11.79 11.04,11.9 11.62,11.9 C11.62,11.9 11.62,11.89 11.62,11.89 C13.44,11.89 15.08,10.79 15.77,9.12 C16.71,6.82 15.62,4.2 13.32,3.26 "/></g><g id="_R_G_L_0_G_L_2_G" transform=" translate(227.649, 117.623) translate(-8.339, -4.493)"><path id="_R_G_L_0_G_L_2_G_D_0_P_0" fill="#00334e" fill-opacity="1" fill-rule="nonzero" d=" M12.18 0 C12.18,0 4.46,0.03 4.46,0.03 C4.46,0.03 4.44,0.03 4.44,0.03 C1.97,0.04 -0.01,2.05 0,4.52 C0.01,6.99 2.01,8.98 4.48,8.99 C4.48,8.99 4.49,8.99 4.49,8.99 C4.49,8.99 12.21,8.96 12.21,8.96 C12.21,8.96 12.21,8.96 12.21,8.96 C14.69,8.95 16.69,6.94 16.68,4.47 C16.66,2 14.65,0 12.18,0 "/></g><g id="_R_G_L_0_G_L_1_G" transform=" translate(117.988, 118) translate(-30.681, -30.681)"><path id="_R_G_L_0_G_L_1_G_D_0_P_0" fill="#00334e" fill-opacity="1" fill-rule="nonzero" d=" M30.68 8.97 C42.67,8.98 52.39,18.69 52.4,30.68 C52.4,42.68 42.68,52.4 30.69,52.4 C18.69,52.4 8.97,42.68 8.97,30.69 C8.96,18.69 18.69,8.97 30.68,8.97  M5.24 47.84 C5.79,48.65 6.38,49.44 7.01,50.2 C7.63,50.96 8.29,51.68 8.99,52.38 C9.68,53.07 10.41,53.73 11.17,54.36 C11.54,54.67 11.93,54.97 12.32,55.27 C13.11,55.86 13.93,56.41 14.77,56.92 C16.04,57.69 17.36,58.37 18.74,58.95 C22.41,60.5 26.45,61.36 30.68,61.36 C34.92,61.36 38.95,60.5 42.62,58.95 C44,58.37 45.33,57.69 46.59,56.92 C47.43,56.41 48.25,55.86 49.04,55.27 C49.43,54.97 49.82,54.67 50.2,54.36 C50.96,53.73 51.68,53.07 52.38,52.38 C53.07,51.68 53.73,50.96 54.36,50.2 C54.98,49.44 55.57,48.65 56.12,47.84 C57.23,46.2 58.18,44.46 58.95,42.62 C59.34,41.71 59.68,40.77 59.98,39.81 C60.88,36.92 61.36,33.86 61.36,30.68 C61.36,29.86 61.32,29.04 61.26,28.24 C61.26,28.24 61.26,28.22 61.26,28.22 C60.07,13.24 48.13,1.3 33.15,0.11 C33.15,0.11 33.12,0.11 33.12,0.11 C32.31,0.04 31.5,0 30.68,0 C13.74,0 0,13.74 0,30.68 C0,33.86 0.48,36.92 1.38,39.81 C1.68,40.77 2.02,41.71 2.41,42.62 C3.19,44.46 4.14,46.2 5.24,47.84 "/></g><g id="_R_G_L_0_G_L_0_G"><path id="_R_G_L_0_G_L_0_G_D_0_P_0" fill="#00334e" fill-opacity="1" fill-rule="nonzero" d=" M199.43 33.1 C177.51,11.85 148.16,-0.03 117.62,0 C117.62,0 117.59,0 117.59,0 C117.59,0 117.59,0 117.59,0 C117.59,0 117.58,0 117.58,0 C102.66,0.05 87.88,2.93 74.03,8.49 C13.59,32.75 -15.74,101.41 8.52,161.85 C9.19,163.56 10.85,164.68 12.68,164.67 C13.25,164.67 13.82,164.56 14.35,164.35 C16.64,163.42 17.76,160.81 16.84,158.51 C11.65,145.64 8.97,131.9 8.95,118.02 C8.89,87.12 21.72,59.2 42.36,39.35 C57.04,25.23 75.67,15.2 96.44,11.07 C103.09,9.74 109.97,9.02 117,8.97 C117.33,8.97 117.66,8.96 117.99,8.96 C145.13,9.06 172.24,19.26 193.21,39.56 C194.18,40.49 195.45,40.88 196.69,40.78 C197.74,40.69 198.76,40.26 199.55,39.44 C201.27,37.66 201.22,34.82 199.43,33.1 "/></g></g></g><g id="time_group"/></svg>