<svg xmlns="http://www.w3.org/2000/svg" xmlns:xlink="http://www.w3.org/1999/xlink" preserveAspectRatio="xMidYMid meet" width="900" height="600" viewBox="0 0 900 600" style="width:100%;height:100%"><defs><animateMotion repeatCount="indefinite" dur="5s" begin="0s" xlink:href="#_R_G_L_7_G" fill="freeze" keyTimes="0;0.2;0.8;0.9966667;1" path="M-440 300 C-440,300 450,300 450,300 C450,300 450,300 450,300 C450,300 1330,300 1330,300 C1330,300 1330,300 1330,300 " keyPoints="0;0.5;0.5;1;1" keySplines="0.333 0 0.667 1;0.167 0.167 0.833 0.833;0.333 0 0.667 1;0 0 0 0" calcMode="spline"/><animateTransform repeatCount="indefinite" dur="5s" begin="0s" xlink:href="#_R_G_L_7_G" fill="freeze" attributeName="transform" from="1.008 1.008" to="1.008 1.008" type="scale" additive="sum" keyTimes="0;1" values="1.008 1.008;1.008 1.008" keySplines="0 0 1 1" calcMode="spline"/><animate repeatCount="indefinite" dur="5s" begin="0s" xlink:href="#_R_G_L_6_G" fill="freeze" attributeName="opacity" from="0" to="0" keyTimes="0;0.2966667;0.3;0.9;0.9033333;1" values="0;0;1;1;0;0" keySplines="0.167 0.167 0.833 0.833;0.167 0.167 0.833 0.833;0.167 0.167 0.833 0.833;0.167 0.167 0.833 0.833;0 0 0 0" calcMode="spline"/><animateTransform repeatCount="indefinite" dur="5s" begin="0s" xlink:href="#_R_G_L_6_G" fill="freeze" attributeName="transform" from="0 0" to="0 0" type="scale" additive="sum" keyTimes="0;0.3;0.4;0.8;0.9;1" values="0 0;0 0;1 1;1 1;0 0;0 0" keySplines="0.333 0 0.667 1;0.333 0 0.667 1;0.167 0.167 0.833 0.833;0.333 0 0.667 1;0 0 0 0" calcMode="spline"/><animateMotion repeatCount="indefinite" dur="5s" begin="0s" xlink:href="#_R_G_L_5_G_N_5_T_0" fill="freeze" keyTimes="0;0.0666667;0.2333333;0.4;0.8;0.8333333;0.9966667;1" path="M0 185.01 C0,185.01 0,185.01 0,185.01 C0,185.01 283.51,185.01 283.51,185.01 C283.51,185.01 1.49,185.01 1.49,185.01 C1.49,185.01 1.49,185.01 1.49,185.01 C1.49,185.01 -284.2,185.01 -284.2,185.01 C-284.2,185.01 1.49,185.01 1.49,185.01 C1.49,185.01 1.49,185.01 1.49,185.01 " keyPoints="0;0;0.25;0.5;0.5;0.75;1;1" keySplines="0.333 0 0.667 1;0.333 0 0.667 1;0.333 0 0.667 1;0.167 0.167 0.833 0.833;0.333 0 0.667 1;0.333 0 0.667 1;0 0 0 0" calcMode="spline"/><animateTransform repeatCount="indefinite" dur="5s" begin="0s" xlink:href="#_R_G_L_5_G_N_5_T_0" fill="freeze" attributeName="transform" from="0.99206 0.99206" to="0.99206 0.99206" type="scale" additive="sum" keyTimes="0;1" values="0.99206 0.99206;0.99206 0.99206" keySplines="0 0 1 1" calcMode="spline"/><animateTransform repeatCount="indefinite" dur="5s" begin="0s" xlink:href="#_R_G_L_5_G_N_5_T_0" fill="freeze" attributeName="transform" from="-118 -58.5" to="-118 -58.5" type="translate" additive="sum" keyTimes="0;1" values="-118 -58.5;-118 -58.5" keySplines="0 0 1 1" calcMode="spline"/><animateMotion repeatCount="indefinite" dur="5s" begin="0s" xlink:href="#_R_G_L_5_G_N_5_N_8_T_0" fill="freeze" keyTimes="0;0.2;0.8;0.9966667;1" path="M-440 300 C-440,300 450,300 450,300 C450,300 450,300 450,300 C450,300 1330,300 1330,300 C1330,300 1330,300 1330,300 " keyPoints="0;0.5;0.5;1;1" keySplines="0.333 0 0.667 1;0.167 0.167 0.833 0.833;0.333 0 0.667 1;0 0 0 0" calcMode="spline"/><animateTransform repeatCount="indefinite" dur="5s" begin="0s" xlink:href="#_R_G_L_5_G_N_5_N_8_T_0" fill="freeze" attributeName="transform" from="1.008 1.008" to="1.008 1.008" type="scale" additive="sum" keyTimes="0;1" values="1.008 1.008;1.008 1.008" keySplines="0 0 1 1" calcMode="spline"/><animateMotion repeatCount="indefinite" dur="5s" begin="0s" xlink:href="#_R_G_L_4_G" fill="freeze" keyTimes="0;0.0666667;0.2333333;0.4;0.8;0.8333333;0.9966667;1" path="M0 185.01 C0,185.01 0,185.01 0,185.01 C0,185.01 283.51,185.01 283.51,185.01 C283.51,185.01 1.49,185.01 1.49,185.01 C1.49,185.01 1.49,185.01 1.49,185.01 C1.49,185.01 -284.2,185.01 -284.2,185.01 C-284.2,185.01 1.49,185.01 1.49,185.01 C1.49,185.01 1.49,185.01 1.49,185.01 " keyPoints="0;0;0.25;0.5;0.5;0.75;1;1" keySplines="0.333 0 0.667 1;0.333 0 0.667 1;0.333 0 0.667 1;0.167 0.167 0.833 0.833;0.333 0 0.667 1;0.333 0 0.667 1;0 0 0 0" calcMode="spline"/><animateTransform repeatCount="indefinite" dur="5s" begin="0s" xlink:href="#_R_G_L_4_G" fill="freeze" attributeName="transform" from="0.99206 0.99206" to="0.99206 0.99206" type="scale" additive="sum" keyTimes="0;1" values="0.99206 0.99206;0.99206 0.99206" keySplines="0 0 1 1" calcMode="spline"/><animateTransform repeatCount="indefinite" dur="5s" begin="0s" xlink:href="#_R_G_L_4_G" fill="freeze" attributeName="transform" from="-118 -58.5" to="-118 -58.5" type="translate" additive="sum" keyTimes="0;1" values="-118 -58.5;-118 -58.5" keySplines="0 0 1 1" calcMode="spline"/><animateMotion repeatCount="indefinite" dur="5s" begin="0s" xlink:href="#_R_G_L_4_G_N_8_T_0" fill="freeze" keyTimes="0;0.2;0.8;0.9966667;1" path="M-440 300 C-440,300 450,300 450,300 C450,300 450,300 450,300 C450,300 1330,300 1330,300 C1330,300 1330,300 1330,300 " keyPoints="0;0.5;0.5;1;1" keySplines="0.333 0 0.667 1;0.167 0.167 0.833 0.833;0.333 0 0.667 1;0 0 0 0" calcMode="spline"/><animateTransform repeatCount="indefinite" dur="5s" begin="0s" xlink:href="#_R_G_L_4_G_N_8_T_0" fill="freeze" attributeName="transform" from="1.008 1.008" to="1.008 1.008" type="scale" additive="sum" keyTimes="0;1" values="1.008 1.008;1.008 1.008" keySplines="0 0 1 1" calcMode="spline"/><animateTransform repeatCount="indefinite" dur="5s" begin="0s" xlink:href="#_R_G_L_3_G" fill="freeze" attributeName="transform" from="0 0" to="0 0" type="scale" additive="sum" keyTimes="0;0.3966667;0.4;0.8033333;0.8066667;1" values="0 0;0 0;1 1;1 1;0 0;0 0" keySplines="0.167 0.167 0.833 0.833;0.167 0.167 0.833 0.833;0.167 0.167 0.833 0.833;0.167 0.167 0.833 0.833;0 0 0 0" calcMode="spline"/><animateTransform repeatCount="indefinite" dur="5s" begin="0s" xlink:href="#_R_G_L_3_G" fill="freeze" attributeName="transform" from="-117.999 -64.235" to="-117.999 -64.235" type="translate" additive="sum" keyTimes="0;1" values="-117.999 -64.235;-117.999 -64.235" keySplines="0 0 1 1" calcMode="spline"/><animate repeatCount="indefinite" dur="5s" begin="0s" xlink:href="#_R_G_L_2_G" fill="freeze" attributeName="opacity" from="0" to="1" keyTimes="0;0.4;0.4033333;0.5633333;1" values="0;0;1;1;1" keySplines="0.167 0.167 0.833 0.833;0.167 0.167 0.833 0.833;0.167 0.167 0.833 0.833;0 0 0 0" calcMode="spline"/><animateTransform repeatCount="indefinite" dur="5s" begin="0s" xlink:href="#_R_G_L_2_G" fill="freeze" attributeName="transform" from="0 0" to="1 1" type="scale" additive="sum" keyTimes="0;0.4;0.47;1" values="0 0;0 0;1 1;1 1" keySplines="0.167 0.167 0.833 0.833;0.167 0.167 0.833 0.833;0 0 0 0" calcMode="spline"/><animateTransform repeatCount="indefinite" dur="5s" begin="0s" xlink:href="#_R_G_L_2_G" fill="freeze" attributeName="transform" from="-22.405 -22.405" to="-22.405 -22.405" type="translate" additive="sum" keyTimes="0;1" values="-22.405 -22.405;-22.405 -22.405" keySplines="0 0 1 1" calcMode="spline"/><animateTransform repeatCount="indefinite" dur="5s" begin="0s" xlink:href="#_R_G_L_2_G_N_4_T_0" fill="freeze" attributeName="transform" from="0 0" to="0 0" type="scale" additive="sum" keyTimes="0;0.3966667;0.4;0.8033333;0.8066667;1" values="0 0;0 0;1 1;1 1;0 0;0 0" keySplines="0.167 0.167 0.833 0.833;0.167 0.167 0.833 0.833;0.167 0.167 0.833 0.833;0.167 0.167 0.833 0.833;0 0 0 0" calcMode="spline"/><animateTransform repeatCount="indefinite" dur="5s" begin="0s" xlink:href="#_R_G_L_2_G_N_4_T_0" fill="freeze" attributeName="transform" from="-117.999 -64.235" to="-117.999 -64.235" type="translate" additive="sum" keyTimes="0;1" values="-117.999 -64.235;-117.999 -64.235" keySplines="0 0 1 1" calcMode="spline"/><animate repeatCount="indefinite" dur="5s" begin="0s" xlink:href="#_R_G_L_1_G" fill="freeze" attributeName="opacity" from="0" to="1" keyTimes="0;0.4666667;0.47;0.6266667;1" values="0;0;1;1;1" keySplines="0.167 0.167 0.833 0.833;0.167 0.167 0.833 0.833;0.167 0.167 0.833 0.833;0 0 0 0" calcMode="spline"/><animateTransform repeatCount="indefinite" dur="5s" begin="0s" xlink:href="#_R_G_L_1_G" fill="freeze" attributeName="transform" from="0 0" to="1 1" type="scale" additive="sum" keyTimes="0;0.4666667;0.5366667;1" values="0 0;0 0;1 1;1 1" keySplines="0.167 0.167 0.833 0.833;0.167 0.167 0.833 0.833;0 0 0 0" calcMode="spline"/><animateTransform repeatCount="indefinite" dur="5s" begin="0s" xlink:href="#_R_G_L_1_G" fill="freeze" attributeName="transform" from="-19.418 -19.418" to="-19.418 -19.418" type="translate" additive="sum" keyTimes="0;1" values="-19.418 -19.418;-19.418 -19.418" keySplines="0 0 1 1" calcMode="spline"/><animateTransform repeatCount="indefinite" dur="5s" begin="0s" xlink:href="#_R_G_L_1_G_N_4_T_0" fill="freeze" attributeName="transform" from="0 0" to="0 0" type="scale" additive="sum" keyTimes="0;0.3966667;0.4;0.8033333;0.8066667;1" values="0 0;0 0;1 1;1 1;0 0;0 0" keySplines="0.167 0.167 0.833 0.833;0.167 0.167 0.833 0.833;0.167 0.167 0.833 0.833;0.167 0.167 0.833 0.833;0 0 0 0" calcMode="spline"/><animateTransform repeatCount="indefinite" dur="5s" begin="0s" xlink:href="#_R_G_L_1_G_N_4_T_0" fill="freeze" attributeName="transform" from="-117.999 -64.235" to="-117.999 -64.235" type="translate" additive="sum" keyTimes="0;1" values="-117.999 -64.235;-117.999 -64.235" keySplines="0 0 1 1" calcMode="spline"/><animate repeatCount="indefinite" dur="5s" begin="0s" xlink:href="#_R_G_L_0_G" fill="freeze" attributeName="opacity" from="0" to="1" keyTimes="0;0.5333333;0.5366667;0.8;1" values="0;0;1;1;1" keySplines="0.167 0.167 0.833 0.833;0.167 0.167 0.833 0.833;0.167 0.167 0.833 0.833;0 0 0 0" calcMode="spline"/><animateTransform repeatCount="indefinite" dur="5s" begin="0s" xlink:href="#_R_G_L_0_G" fill="freeze" attributeName="transform" from="0 0" to="1 1" type="scale" additive="sum" keyTimes="0;0.5333333;0.6033333;1" values="0 0;0 0;1 1;1 1" keySplines="0.167 0.167 0.833 0.833;0.167 0.167 0.833 0.833;0 0 0 0" calcMode="spline"/><animateTransform repeatCount="indefinite" dur="5s" begin="0s" xlink:href="#_R_G_L_0_G" fill="freeze" attributeName="transform" from="-16.431 -16.43" to="-16.431 -16.43" type="translate" additive="sum" keyTimes="0;1" values="-16.431 -16.43;-16.431 -16.43" keySplines="0 0 1 1" calcMode="spline"/><animateTransform repeatCount="indefinite" dur="5s" begin="0s" xlink:href="#_R_G_L_0_G_N_4_T_0" fill="freeze" attributeName="transform" from="0 0" to="0 0" type="scale" additive="sum" keyTimes="0;0.3966667;0.4;0.8033333;0.8066667;1" values="0 0;0 0;1 1;1 1;0 0;0 0" keySplines="0.167 0.167 0.833 0.833;0.167 0.167 0.833 0.833;0.167 0.167 0.833 0.833;0.167 0.167 0.833 0.833;0 0 0 0" calcMode="spline"/><animateTransform repeatCount="indefinite" dur="5s" begin="0s" xlink:href="#_R_G_L_0_G_N_4_T_0" fill="freeze" attributeName="transform" from="-117.999 -64.235" to="-117.999 -64.235" type="translate" additive="sum" keyTimes="0;1" values="-117.999 -64.235;-117.999 -64.235" keySplines="0 0 1 1" calcMode="spline"/><animate attributeType="XML" attributeName="opacity" dur="5s" from="0" to="1" xlink:href="#time_group"/></defs><g id="_R_G"><g id="_R_G_L_8_G" transform=" translate(450, 300) translate(0, 0)"><path id="_R_G_L_8_G_D_0_P_0" fill="#ffffff" fill-opacity="1" fill-rule="nonzero" d=" M450.53 -301.6 C450.53,-301.6 450.53,298.4 450.53,298.4 C450.53,298.4 -449.47,298.4 -449.47,298.4 C-449.47,298.4 -449.47,-301.6 -449.47,-301.6 C-449.47,-301.6 450.53,-301.6 450.53,-301.6z "/></g><g id="_R_G_L_7_G"><path id="_R_G_L_7_G_D_0_P_0" stroke="#00334e" stroke-linecap="round" stroke-linejoin="round" fill="none" stroke-width="9" stroke-opacity="1" d=" M-399 251 C-399,251 400,250 400,250 "/></g><g id="_R_G_L_6_G" transform=" translate(450.5, 278.088)"><path id="_R_G_L_6_G_D_0_P_0" fill="#fbb83f" fill-opacity="1" fill-rule="nonzero" d=" M0 -185.5 C102.38,-185.5 185.5,-102.38 185.5,0 C185.5,102.38 102.38,185.5 0,185.5 C-102.38,185.5 -185.5,102.38 -185.5,0 C-185.5,-102.38 -102.38,-185.5 0,-185.5z "/></g><g id="_R_G_L_5_G_N_5_N_8_T_0"><g id="_R_G_L_5_G_N_5_T_0"><g id="_R_G_L_5_G" transform=" translate(119.392, 50.493) translate(-112.036, -45.452)"><path id="_R_G_L_5_G_D_0_P_0" fill="#ffffff" fill-opacity="1" fill-rule="nonzero" d=" M0 40.26 C0,40.26 0,87.21 0,87.21 C0,87.21 21.22,90.91 21.22,90.91 C21.22,90.91 26.73,74.86 26.73,74.86 C26.73,74.86 48.45,74.86 48.45,74.86 C48.45,74.86 55.75,90.91 55.75,90.91 C55.75,90.91 164.34,87.21 164.34,87.21 C164.34,87.21 170.61,74.86 170.61,74.86 C170.61,74.86 191.73,74.86 191.73,74.86 C191.73,74.86 199.95,90.91 199.95,90.91 C199.95,90.91 224.07,87.21 224.07,87.21 C224.07,87.21 224.07,47.88 224.07,47.88 C224.07,47.88 176.95,35.15 176.95,35.15 C176.95,35.15 164.34,35.15 164.34,35.15 C164.34,35.15 126.66,0 126.66,0 C126.66,0 55.75,0 55.75,0 C55.75,0 21.22,35.15 21.22,35.15 C21.22,35.15 0,40.26 0,40.26z "/></g></g></g><g id="_R_G_L_4_G_N_8_T_0"><g id="_R_G_L_4_G"><g id="_R_G_L_4_G_L_0_G" transform=" translate(118, 58.261) translate(-118, -58.258)"><path id="_R_G_L_4_G_L_0_G_D_0_P_0" fill="#00334e" fill-opacity="1" fill-rule="nonzero" d=" M146.37 52.28 C146.37,54.76 144.36,56.77 141.89,56.77 C141.89,56.77 76.16,56.77 76.16,56.77 C75.47,56.77 74.78,56.6 74.16,56.29 C74.16,56.29 62.21,50.32 62.21,50.32 C59.99,49.23 59.07,46.55 60.15,44.33 C61.24,42.1 63.93,41.18 66.15,42.27 C66.15,42.27 66.21,42.3 66.21,42.3 C66.21,42.3 77.22,47.8 77.22,47.8 C77.22,47.8 141.89,47.8 141.89,47.8 C144.36,47.8 146.37,49.81 146.37,52.28z  M227.04 85.15 C227.04,87.62 225.03,89.63 222.56,89.63 C222.56,89.63 211.65,89.63 211.65,89.63 C209.17,77.51 197.33,69.68 185.2,72.16 C176.41,73.96 169.54,80.83 167.74,89.63 C167.74,89.63 68.24,89.63 68.24,89.63 C65.76,77.51 53.92,69.68 41.8,72.16 C33,73.96 26.13,80.83 24.33,89.63 C24.33,89.63 13.42,89.63 13.42,89.63 C10.95,89.63 8.94,87.62 8.94,85.15 C8.94,85.15 8.94,53.31 8.94,53.31 C8.94,51.25 10.34,49.46 12.33,48.96 C12.33,48.96 27.04,45.28 27.04,45.28 C29.4,44.69 31.56,43.47 33.29,41.74 C33.29,41.74 64.75,10.28 64.75,10.28 C65.59,9.44 66.74,8.96 67.93,8.96 C67.93,8.96 132.2,8.96 132.2,8.96 C133.39,8.96 134.53,9.44 135.37,10.28 C135.37,10.28 166.85,41.76 166.85,41.76 C168.81,43.72 171.47,44.82 174.25,44.82 C174.25,44.82 176.36,44.82 176.36,44.82 C180.88,44.82 185.38,45.37 189.76,46.46 C189.76,46.46 223.64,54.93 223.64,54.93 C225.64,55.43 227.04,57.23 227.04,59.28 C227.04,59.28 227.04,85.15 227.04,85.15z  M189.69 107.56 C182.27,107.56 176.25,101.54 176.25,94.11 C176.25,86.68 182.27,80.67 189.69,80.67 C197.12,80.67 203.14,86.68 203.14,94.11 C203.13,101.53 197.11,107.55 189.69,107.56  M46.29 107.56 C38.86,107.56 32.84,101.54 32.84,94.11 C32.84,86.68 38.86,80.67 46.29,80.67 C53.71,80.67 59.73,86.68 59.73,94.11 C59.72,101.53 53.71,107.55 46.29,107.56  M225.82 46.24 C225.82,46.24 191.94,37.77 191.94,37.77 C186.84,36.5 181.61,35.85 176.36,35.85 C176.36,35.85 174.25,35.85 174.25,35.85 C173.85,35.85 173.46,35.7 173.18,35.42 C173.18,35.42 141.71,3.94 141.71,3.94 C139.19,1.41 135.77,-0.01 132.2,0 C132.2,0 67.93,0 67.93,0 C64.36,-0.01 60.94,1.41 58.42,3.94 C58.42,3.94 26.95,35.41 26.95,35.41 C26.38,35.99 25.65,36.4 24.86,36.6 C24.86,36.6 10.16,40.28 10.16,40.28 C4.18,41.78 -0.01,47.16 0,53.32 C0,53.32 0,85.15 0,85.15 C0.01,92.56 6.01,98.57 13.42,98.59 C13.42,98.59 24.33,98.59 24.33,98.59 C26.81,110.72 38.65,118.54 50.77,116.06 C59.57,114.26 66.44,107.39 68.24,98.59 C68.24,98.59 167.74,98.59 167.74,98.59 C170.22,110.72 182.06,118.54 194.18,116.06 C202.98,114.26 209.85,107.39 211.65,98.59 C211.65,98.59 222.56,98.59 222.56,98.59 C229.98,98.59 235.99,92.57 236,85.15 C236,85.15 236,59.28 236,59.28 C236.01,53.11 231.81,47.73 225.82,46.24 "/></g></g></g><g id="_R_G_L_3_G" transform=" translate(449.999, 319.91)"><path id="_R_G_L_3_G_D_0_P_0" fill="#00334e" fill-opacity="1" fill-rule="nonzero" d=" M224.05 44.55 C224.04,45.77 223.98,47.03 223.85,48.27 C223.38,52.92 222.77,57.68 222.03,62.4 C227.04,59.46 227.04,55.16 227.04,53.54 C227.04,48.9 225.17,45.91 224.05,44.55 C224.05,44.55 224.05,44.55 224.05,44.55 C224.05,44.55 224.05,44.55 224.05,44.55z  M11.95 44.55 C10.83,45.91 8.96,48.89 8.96,53.54 C8.96,55.16 8.96,59.46 13.96,62.4 C13.22,57.63 12.61,52.88 12.15,48.27 C12.02,47.03 11.96,45.77 11.95,44.55z  M118 8.96 C88.81,8.96 63.93,10.92 46.05,14.61 C30.24,17.89 19.5,31.97 21.06,47.37 C23.39,70.36 30.37,109.98 50.92,116.98 C55.92,118.69 60.38,119.52 64.54,119.52 C73.07,119.52 79.37,116.01 86.66,111.94 C86.66,111.94 86.67,111.94 86.67,111.94 C86.67,111.94 86.68,111.93 86.68,111.93 C94.91,107.35 104.24,102.15 118,102.15 C131.75,102.15 141.08,107.35 149.32,111.93 C149.32,111.93 149.32,111.94 149.32,111.94 C156.62,116 162.93,119.51 171.47,119.51 C175.63,119.51 180.08,118.68 185.08,116.98 C205.63,109.98 212.61,70.36 214.94,47.37 C216.5,31.97 205.75,17.89 189.95,14.61 C172.06,10.92 147.19,8.96 118,8.96z  M64.55 128.47 C59.36,128.47 53.96,127.49 48.03,125.47 C43.74,124.01 39.75,121.5 36.15,118.02 C32.84,114.81 29.78,110.69 27.07,105.78 C22.37,97.25 18.58,86.13 15.82,72.73 C10.73,71.31 6.78,68.94 4.09,65.68 C1.37,62.41 0,58.32 0,53.54 C0,46.97 2.56,40.73 6.85,36.84 C8.82,35.06 11.15,33.88 13.58,33.41 C15.61,26.66 19.49,20.54 24.78,15.71 C30.2,10.77 36.93,7.36 44.24,5.84 C62.71,2.02 88.21,0 118,0 C147.79,0 173.29,2.02 191.76,5.84 C199.07,7.35 205.8,10.76 211.21,15.7 C216.51,20.53 220.38,26.65 222.41,33.4 C224.84,33.85 227.16,35.04 229.15,36.84 C233.44,40.73 236,46.97 236,53.54 C236,58.32 234.62,62.41 231.91,65.68 C229.22,68.94 225.27,71.31 220.18,72.73 C217.41,86.13 213.63,97.25 208.93,105.78 C206.22,110.69 203.16,114.81 199.85,118.02 C196.25,121.5 192.26,124.01 187.97,125.47 C182.05,127.49 176.65,128.47 171.46,128.47 C160.57,128.47 152.64,124.05 144.96,119.77 C136.98,115.32 129.44,111.12 118,111.12 C106.56,111.12 99.02,115.32 91.04,119.77 C83.37,124.05 75.44,128.47 64.55,128.47z "/></g><g id="_R_G_L_2_G_N_4_T_0" transform=" translate(449.999, 319.91)"><g id="_R_G_L_2_G" transform=" translate(135.923, -43.316)"><path id="_R_G_L_2_G_D_0_P_0" fill="#00334e" fill-opacity="1" fill-rule="nonzero" d=" M0 4.48 C0,2.01 2.01,0 4.48,0 C4.48,0 40.33,0 40.33,0 C42.14,0 43.78,1.09 44.47,2.77 C45.16,4.44 44.78,6.36 43.5,7.65 C43.5,7.65 15.3,35.85 15.3,35.85 C15.3,35.85 40.33,35.85 40.33,35.85 C42.8,35.85 44.81,37.86 44.81,40.33 C44.81,42.8 42.8,44.81 40.33,44.81 C40.33,44.81 4.48,44.81 4.48,44.81 C2.67,44.81 1.03,43.72 0.34,42.04 C-0.35,40.37 0.03,38.45 1.32,37.16 C1.32,37.16 29.51,8.96 29.51,8.96 C29.51,8.96 4.48,8.96 4.48,8.96 C2.01,8.96 0,6.95 0,4.48 "/></g></g><g id="_R_G_L_1_G_N_4_T_0" transform=" translate(449.999, 319.91)"><g id="_R_G_L_1_G" transform=" translate(180.733, -64.228)"><path id="_R_G_L_1_G_D_0_P_0" fill="#00334e" fill-opacity="1" fill-rule="nonzero" d=" M4.48 8.96 C4.48,8.96 23.54,8.96 23.54,8.96 C23.54,8.96 1.32,31.19 1.32,31.19 C0.03,32.47 -0.35,34.4 0.34,36.07 C1.03,37.74 2.67,38.84 4.48,38.84 C4.48,38.84 34.35,38.84 34.35,38.84 C36.83,38.84 38.84,36.83 38.84,34.35 C38.84,31.88 36.83,29.87 34.35,29.87 C34.35,29.87 15.3,29.87 15.3,29.87 C15.3,29.87 37.52,7.65 37.52,7.65 C38.81,6.36 39.19,4.44 38.49,2.77 C37.8,1.09 36.17,0 34.35,0 C34.35,0 4.48,0 4.48,0 C2.01,0 0,2.01 0,4.48 C0,6.95 2.01,8.96 4.48,8.96 "/></g></g><g id="_R_G_L_0_G_N_4_T_0" transform=" translate(449.999, 319.91)"><g id="_R_G_L_0_G" transform=" translate(219.568, -49.291)"><path id="_R_G_L_0_G_D_0_P_0" fill="#00334e" fill-opacity="1" fill-rule="nonzero" d=" M4.48 8.96 C4.48,8.96 17.56,8.96 17.56,8.96 C17.56,8.96 1.32,25.21 1.32,25.21 C0.03,26.5 -0.35,28.42 0.34,30.09 C1.03,31.77 2.67,32.86 4.48,32.86 C4.48,32.86 28.38,32.86 28.38,32.86 C30.85,32.86 32.86,30.85 32.86,28.38 C32.86,25.91 30.85,23.9 28.38,23.9 C28.38,23.9 15.3,23.9 15.3,23.9 C15.3,23.9 31.55,7.65 31.55,7.65 C32.83,6.36 33.21,4.44 32.52,2.77 C31.83,1.09 30.19,0 28.38,0 C28.38,0 4.48,0 4.48,0 C2.01,0 0,2.01 0,4.48 C0,6.95 2.01,8.96 4.48,8.96 "/></g></g></g><g id="time_group"/></svg>