<svg xmlns="http://www.w3.org/2000/svg" xmlns:xlink="http://www.w3.org/1999/xlink" preserveAspectRatio="xMidYMid meet" width="900" height="600" viewBox="0 0 900 600" style="width:100%;height:100%"><defs><animateMotion repeatCount="indefinite" dur="5s" begin="0s" xlink:href="#_R_G_L_4_G" fill="freeze" keyTimes="0;0.2;0.8;0.9966667;1" path="M1320 300 C1320,300 450,300 450,300 C450,300 450,300 450,300 C450,300 -444,300 -444,300 C-444,300 -444,300 -444,300 " keyPoints="0;0.49;0.49;1;1" keySplines="0.333 0 0.667 1;0.167 0.167 0.833 0.833;0.333 0 0.667 1;0 0 0 0" calcMode="spline"/><animateTransform repeatCount="indefinite" dur="5s" begin="0s" xlink:href="#_R_G_L_4_G" fill="freeze" attributeName="transform" from="1.008 1.008" to="1.008 1.008" type="scale" additive="sum" keyTimes="0;1" values="1.008 1.008;1.008 1.008" keySplines="0 0 1 1" calcMode="spline"/><animate repeatCount="indefinite" dur="5s" begin="0s" xlink:href="#_R_G_L_3_G" fill="freeze" attributeName="opacity" from="0" to="0" keyTimes="0;0.2966667;0.3;0.9;0.9033333;1" values="0;0;1;1;0;0" keySplines="0.167 0.167 0.833 0.833;0.167 0.167 0.833 0.833;0.167 0.167 0.833 0.833;0.167 0.167 0.833 0.833;0 0 0 0" calcMode="spline"/><animateTransform repeatCount="indefinite" dur="5s" begin="0s" xlink:href="#_R_G_L_3_G" fill="freeze" attributeName="transform" from="0 0" to="0 0" type="scale" additive="sum" keyTimes="0;0.3;0.4;0.8;0.9;1" values="0 0;0 0;1 1;1 1;0 0;0 0" keySplines="0.333 0 0.667 1;0.333 0 0.667 1;0.167 0.167 0.833 0.833;0.333 0 0.667 1;0 0 0 0" calcMode="spline"/><animateMotion repeatCount="indefinite" dur="5s" begin="0s" xlink:href="#_R_G_L_2_G_N_2_T_0" fill="freeze" keyTimes="0;0.0666667;0.2333333;0.4;0.8;0.8733333;0.9966667;1" path="M0 185.01 C0,185.01 0,185.01 0,185.01 C0,185.01 -286.46,185.01 -286.46,185.01 C-286.46,185.01 1.49,185.01 1.49,185.01 C1.49,185.01 1.49,185.01 1.49,185.01 C1.49,185.01 -284.2,185.01 -284.2,185.01 C-284.2,185.01 1.49,185.01 1.49,185.01 C1.49,185.01 1.49,185.01 1.49,185.01 " keyPoints="0;0;0.25;0.5;0.5;0.75;1;1" keySplines="0.333 0 0.667 1;0.333 0 0.667 1;0.333 0 0.667 1;0.167 0.167 0.667 0.667;0.333 0 0.667 1;0.333 0 0.667 1;0 0 0 0" calcMode="spline"/><animateTransform repeatCount="indefinite" dur="5s" begin="0s" xlink:href="#_R_G_L_2_G_N_2_T_0" fill="freeze" attributeName="transform" from="-0.99206 0.99206" to="-0.99206 0.99206" type="scale" additive="sum" keyTimes="0;1" values="-0.99206 0.99206;-0.99206 0.99206" keySplines="0 0 1 1" calcMode="spline"/><animateTransform repeatCount="indefinite" dur="5s" begin="0s" xlink:href="#_R_G_L_2_G_N_2_T_0" fill="freeze" attributeName="transform" from="-118 -58.5" to="-118 -58.5" type="translate" additive="sum" keyTimes="0;1" values="-118 -58.5;-118 -58.5" keySplines="0 0 1 1" calcMode="spline"/><animateMotion repeatCount="indefinite" dur="5s" begin="0s" xlink:href="#_R_G_L_2_G_N_2_N_5_T_0" fill="freeze" keyTimes="0;0.2;0.8;0.9966667;1" path="M1320 300 C1320,300 450,300 450,300 C450,300 450,300 450,300 C450,300 -444,300 -444,300 C-444,300 -444,300 -444,300 " keyPoints="0;0.49;0.49;1;1" keySplines="0.333 0 0.667 1;0.167 0.167 0.833 0.833;0.333 0 0.667 1;0 0 0 0" calcMode="spline"/><animateTransform repeatCount="indefinite" dur="5s" begin="0s" xlink:href="#_R_G_L_2_G_N_2_N_5_T_0" fill="freeze" attributeName="transform" from="1.008 1.008" to="1.008 1.008" type="scale" additive="sum" keyTimes="0;1" values="1.008 1.008;1.008 1.008" keySplines="0 0 1 1" calcMode="spline"/><animateMotion repeatCount="indefinite" dur="5s" begin="0s" xlink:href="#_R_G_L_1_G" fill="freeze" keyTimes="0;0.0666667;0.2333333;0.4;0.8;0.8733333;0.9966667;1" path="M0 185.01 C0,185.01 0,185.01 0,185.01 C0,185.01 -286.46,185.01 -286.46,185.01 C-286.46,185.01 1.49,185.01 1.49,185.01 C1.49,185.01 1.49,185.01 1.49,185.01 C1.49,185.01 -284.2,185.01 -284.2,185.01 C-284.2,185.01 1.49,185.01 1.49,185.01 C1.49,185.01 1.49,185.01 1.49,185.01 " keyPoints="0;0;0.25;0.5;0.5;0.75;1;1" keySplines="0.333 0 0.667 1;0.333 0 0.667 1;0.333 0 0.667 1;0.167 0.167 0.667 0.667;0.333 0 0.667 1;0.333 0 0.667 1;0 0 0 0" calcMode="spline"/><animateTransform repeatCount="indefinite" dur="5s" begin="0s" xlink:href="#_R_G_L_1_G" fill="freeze" attributeName="transform" from="-0.99206 0.99206" to="-0.99206 0.99206" type="scale" additive="sum" keyTimes="0;1" values="-0.99206 0.99206;-0.99206 0.99206" keySplines="0 0 1 1" calcMode="spline"/><animateTransform repeatCount="indefinite" dur="5s" begin="0s" xlink:href="#_R_G_L_1_G" fill="freeze" attributeName="transform" from="-118 -58.5" to="-118 -58.5" type="translate" additive="sum" keyTimes="0;1" values="-118 -58.5;-118 -58.5" keySplines="0 0 1 1" calcMode="spline"/><animateMotion repeatCount="indefinite" dur="5s" begin="0s" xlink:href="#_R_G_L_1_G_N_5_T_0" fill="freeze" keyTimes="0;0.2;0.8;0.9966667;1" path="M1320 300 C1320,300 450,300 450,300 C450,300 450,300 450,300 C450,300 -444,300 -444,300 C-444,300 -444,300 -444,300 " keyPoints="0;0.49;0.49;1;1" keySplines="0.333 0 0.667 1;0.167 0.167 0.833 0.833;0.333 0 0.667 1;0 0 0 0" calcMode="spline"/><animateTransform repeatCount="indefinite" dur="5s" begin="0s" xlink:href="#_R_G_L_1_G_N_5_T_0" fill="freeze" attributeName="transform" from="1.008 1.008" to="1.008 1.008" type="scale" additive="sum" keyTimes="0;1" values="1.008 1.008;1.008 1.008" keySplines="0 0 1 1" calcMode="spline"/><animate repeatCount="indefinite" dur="5s" begin="0s" xlink:href="#_R_G_L_0_G" fill="freeze" attributeName="opacity" from="0" to="0" keyTimes="0;0.4;0.4033333;0.7966667;0.8;1" values="0;0;1;1;0;0" keySplines="0.167 0.167 0.833 0.833;0.167 0.167 0.833 0.833;0.167 0.167 0.833 0.833;0.167 0.167 0.833 0.833;0 0 0 0" calcMode="spline"/><animateTransform repeatCount="indefinite" dur="5s" begin="0s" xlink:href="#_R_G_L_0_G" fill="freeze" attributeName="transform" from="0" to="0" type="rotate" additive="sum" keyTimes="0;0.4666667;0.5;0.5666667;0.6333333;0.6666667;1" values="0;0;5;-5;5;0;0" keySplines="0.333 0 0.667 1;0.333 0 0.667 1;0.333 0 0.667 1;0.333 0 0.667 1;0.333 0 0.667 1;0 0 0 0" calcMode="spline"/><animateTransform repeatCount="indefinite" dur="5s" begin="0s" xlink:href="#_R_G_L_0_G" fill="freeze" attributeName="transform" from="-70.203 -118" to="-70.203 -118" type="translate" additive="sum" keyTimes="0;1" values="-70.203 -118;-70.203 -118" keySplines="0 0 1 1" calcMode="spline"/><animate attributeType="XML" attributeName="opacity" dur="5s" from="0" to="1" xlink:href="#time_group"/></defs><g id="_R_G"><g id="_R_G_L_4_G"><path id="_R_G_L_4_G_D_0_P_0" stroke="#00334e" stroke-linecap="round" stroke-linejoin="round" fill="none" stroke-width="9" stroke-opacity="1" d=" M-399 251 C-399,251 400,250 400,250 "/></g><g id="_R_G_L_3_G" transform=" translate(450.5, 278.088)"><path id="_R_G_L_3_G_D_0_P_0" fill="#fbb83f" fill-opacity="1" fill-rule="nonzero" d=" M0 -185.5 C102.38,-185.5 185.5,-102.38 185.5,0 C185.5,102.38 102.38,185.5 0,185.5 C-102.38,185.5 -185.5,102.38 -185.5,0 C-185.5,-102.38 -102.38,-185.5 0,-185.5z "/></g><g id="_R_G_L_2_G_N_2_N_5_T_0"><g id="_R_G_L_2_G_N_2_T_0"><g id="_R_G_L_2_G" transform=" translate(119.392, 50.493) translate(-112.036, -45.452)"><path id="_R_G_L_2_G_D_0_P_0" fill="#ffffff" fill-opacity="1" fill-rule="nonzero" d=" M0 40.26 C0,40.26 0,87.21 0,87.21 C0,87.21 21.22,90.91 21.22,90.91 C21.22,90.91 26.73,74.86 26.73,74.86 C26.73,74.86 48.45,74.86 48.45,74.86 C48.45,74.86 55.75,90.91 55.75,90.91 C55.75,90.91 164.34,87.21 164.34,87.21 C164.34,87.21 170.61,74.86 170.61,74.86 C170.61,74.86 191.73,74.86 191.73,74.86 C191.73,74.86 199.95,90.91 199.95,90.91 C199.95,90.91 224.07,87.21 224.07,87.21 C224.07,87.21 224.07,47.88 224.07,47.88 C224.07,47.88 176.95,35.15 176.95,35.15 C176.95,35.15 164.34,35.15 164.34,35.15 C164.34,35.15 126.66,0 126.66,0 C126.66,0 55.75,0 55.75,0 C55.75,0 21.22,35.15 21.22,35.15 C21.22,35.15 0,40.26 0,40.26z "/></g></g></g><g id="_R_G_L_1_G_N_5_T_0"><g id="_R_G_L_1_G"><g id="_R_G_L_1_G_L_0_G" transform=" translate(118, 58.261) translate(-118, -58.258)"><path id="_R_G_L_1_G_L_0_G_D_0_P_0" fill="#00334e" fill-opacity="1" fill-rule="nonzero" d=" M146.37 52.28 C146.37,54.76 144.36,56.77 141.89,56.77 C141.89,56.77 76.16,56.77 76.16,56.77 C75.47,56.77 74.78,56.6 74.16,56.29 C74.16,56.29 62.21,50.32 62.21,50.32 C59.99,49.23 59.07,46.55 60.15,44.33 C61.24,42.1 63.93,41.18 66.15,42.27 C66.15,42.27 66.21,42.3 66.21,42.3 C66.21,42.3 77.22,47.8 77.22,47.8 C77.22,47.8 141.89,47.8 141.89,47.8 C144.36,47.8 146.37,49.81 146.37,52.28z  M227.04 85.15 C227.04,87.62 225.03,89.63 222.56,89.63 C222.56,89.63 211.65,89.63 211.65,89.63 C209.17,77.51 197.33,69.68 185.2,72.16 C176.41,73.96 169.54,80.83 167.74,89.63 C167.74,89.63 68.24,89.63 68.24,89.63 C65.76,77.51 53.92,69.68 41.8,72.16 C33,73.96 26.13,80.83 24.33,89.63 C24.33,89.63 13.42,89.63 13.42,89.63 C10.95,89.63 8.94,87.62 8.94,85.15 C8.94,85.15 8.94,53.31 8.94,53.31 C8.94,51.25 10.34,49.46 12.33,48.96 C12.33,48.96 27.04,45.28 27.04,45.28 C29.4,44.69 31.56,43.47 33.29,41.74 C33.29,41.74 64.75,10.28 64.75,10.28 C65.59,9.44 66.74,8.96 67.93,8.96 C67.93,8.96 132.2,8.96 132.2,8.96 C133.39,8.96 134.53,9.44 135.37,10.28 C135.37,10.28 166.85,41.76 166.85,41.76 C168.81,43.72 171.47,44.82 174.25,44.82 C174.25,44.82 176.36,44.82 176.36,44.82 C180.88,44.82 185.38,45.37 189.76,46.46 C189.76,46.46 223.64,54.93 223.64,54.93 C225.64,55.43 227.04,57.23 227.04,59.28 C227.04,59.28 227.04,85.15 227.04,85.15z  M189.69 107.56 C182.27,107.56 176.25,101.54 176.25,94.11 C176.25,86.68 182.27,80.67 189.69,80.67 C197.12,80.67 203.14,86.68 203.14,94.11 C203.13,101.53 197.11,107.55 189.69,107.56  M46.29 107.56 C38.86,107.56 32.84,101.54 32.84,94.11 C32.84,86.68 38.86,80.67 46.29,80.67 C53.71,80.67 59.73,86.68 59.73,94.11 C59.72,101.53 53.71,107.55 46.29,107.56  M225.82 46.24 C225.82,46.24 191.94,37.77 191.94,37.77 C186.84,36.5 181.61,35.85 176.36,35.85 C176.36,35.85 174.25,35.85 174.25,35.85 C173.85,35.85 173.46,35.7 173.18,35.42 C173.18,35.42 141.71,3.94 141.71,3.94 C139.19,1.41 135.77,-0.01 132.2,0 C132.2,0 67.93,0 67.93,0 C64.36,-0.01 60.94,1.41 58.42,3.94 C58.42,3.94 26.95,35.41 26.95,35.41 C26.38,35.99 25.65,36.4 24.86,36.6 C24.86,36.6 10.16,40.28 10.16,40.28 C4.18,41.78 -0.01,47.16 0,53.32 C0,53.32 0,85.15 0,85.15 C0.01,92.56 6.01,98.57 13.42,98.59 C13.42,98.59 24.33,98.59 24.33,98.59 C26.81,110.72 38.65,118.54 50.77,116.06 C59.57,114.26 66.44,107.39 68.24,98.59 C68.24,98.59 167.74,98.59 167.74,98.59 C170.22,110.72 182.06,118.54 194.18,116.06 C202.98,114.26 209.85,107.39 211.65,98.59 C211.65,98.59 222.56,98.59 222.56,98.59 C229.98,98.59 235.99,92.57 236,85.15 C236,85.15 236,59.28 236,59.28 C236.01,53.11 231.81,47.73 225.82,46.24 "/></g></g></g><g id="_R_G_L_0_G" transform=" translate(456, 278.088)"><path id="_R_G_L_0_G_D_0_P_0" fill="#00334e" fill-opacity="1" fill-rule="nonzero" d=" M88.13 32.86 C88.13,32.86 52.28,32.86 52.28,32.86 C49.81,32.86 47.8,30.85 47.8,28.38 C47.8,25.91 49.81,23.9 52.28,23.9 C52.28,23.9 88.13,23.9 88.13,23.9 C90.6,23.9 92.61,25.91 92.61,28.38 C92.61,30.85 90.6,32.86 88.13,32.86z  M13.44 8.96 C10.97,8.96 8.96,10.97 8.96,13.44 C8.96,13.44 8.96,222.56 8.96,222.56 C8.96,225.03 10.97,227.04 13.44,227.04 C13.44,227.04 126.96,227.04 126.96,227.04 C129.44,227.04 131.45,225.03 131.45,222.56 C131.45,222.56 131.45,13.44 131.45,13.44 C131.45,10.97 129.44,8.96 126.96,8.96 C126.96,8.96 13.44,8.96 13.44,8.96z  M126.96 236 C126.96,236 13.44,236 13.44,236 C6.03,236 0,229.97 0,222.56 C0,222.56 0,13.44 0,13.44 C0,6.03 6.03,0 13.44,0 C13.44,0 126.96,0 126.96,0 C134.38,0 140.41,6.03 140.41,13.44 C140.41,13.44 140.41,222.56 140.41,222.56 C140.41,229.97 134.38,236 126.96,236z "/></g></g><g id="time_group"/></svg>