<svg xmlns="http://www.w3.org/2000/svg" xmlns:xlink="http://www.w3.org/1999/xlink" preserveAspectRatio="xMidYMid meet" width="900" height="600" viewBox="0 0 900 600" style="width:100%;height:100%"><defs><animate repeatCount="indefinite" dur="8.5s" begin="0s" xlink:href="#_R_G_L_5_G" fill="freeze" attributeName="opacity" from="1" to="1" keyTimes="0;0;1" values="1;1;1" keySplines="0.167 0.167 0.833 0.833;0 0 0 0" calcMode="spline"/><animateMotion repeatCount="indefinite" dur="8.5s" begin="0s" xlink:href="#_R_G_L_5_G" fill="freeze" keyTimes="0;0.000002;0.117649;0.4705902;0.5882373;0.590198;0.7039235;0.8254922;0.9411783;1" path="M1326.23 300 C1326.23,300 1326.23,300 1326.23,300 C1326.23,300 450.23,300 450.23,300 C450.23,300 450.23,300 450.23,300 C450.23,300 -409.77,300 -409.77,300 C-409.77,300 1328.23,300 1328.23,300 C1328.23,300 454.23,300 454.23,300 C454.23,300 454.23,300 454.23,300 C454.23,300 -427.77,300 -427.77,300 C-427.77,300 -427.77,300 -427.77,300 " keyPoints="0;0;0.17;0.17;0.33;0.66;0.83;0.83;1;1" keySplines="0.333 0 0.667 1;0.333 0 0.667 1;0.333 0.333 0.667 0.667;0.333 0 0.667 1;0.333 0 0.667 1;0.333 0 0.667 1;0.333 0.333 0.667 0.667;0.333 0 0.667 1;0 0 0 0" calcMode="spline"/><animateTransform repeatCount="indefinite" dur="8.5s" begin="0s" xlink:href="#_R_G_L_5_G" fill="freeze" attributeName="transform" from="1.008 1.008" to="1.008 1.008" type="scale" additive="sum" keyTimes="0;1" values="1.008 1.008;1.008 1.008" keySplines="0 0 1 1" calcMode="spline"/><animateTransform repeatCount="indefinite" dur="8.5s" begin="0s" xlink:href="#_R_G_L_4_G" fill="freeze" attributeName="transform" from="1 1" to="1 1" type="scale" additive="sum" keyTimes="0;0.1352941;0.1843137;0.354902;0.4019608;0.9235294;0.9254902;1" values="1 1;1 1;2.25 2.25;2.25 2.25;0 0;0 0;1 1;1 1" keySplines="0.333 0 0.667 1;0.333 0 0.667 1;0.333 0 0.667 1;0.333 0 0.667 1;0.333 0 0.667 1;0.333 0 0.667 1;0 0 0 0" calcMode="spline"/><animateTransform repeatCount="indefinite" dur="8.5s" begin="0s" xlink:href="#_R_G_L_4_G" fill="freeze" attributeName="transform" from="94.5 73" to="94.5 73" type="translate" additive="sum" keyTimes="0;1" values="94.5 73;94.5 73" keySplines="0 0 1 1" calcMode="spline"/><animateTransform repeatCount="indefinite" dur="8.5s" begin="0s" xlink:href="#_R_G_L_3_G" fill="freeze" attributeName="transform" from="1 1" to="0 0" type="scale" additive="sum" keyTimes="0;0.4019608;0.4509804;0.6392157;0.6862745;1" values="1 1;1 1;2.2800000000000002 2.2800000000000002;2.2800000000000002 2.2800000000000002;0 0;0 0" keySplines="0.333 0 0.667 1;0.333 0 0.667 1;0.333 0 0.667 1;0.333 0 0.667 1;0 0 0 0" calcMode="spline"/><animateTransform repeatCount="indefinite" dur="8.5s" begin="0s" xlink:href="#_R_G_L_3_G" fill="freeze" attributeName="transform" from="94 73.5" to="94 73.5" type="translate" additive="sum" keyTimes="0;1" values="94 73.5;94 73.5" keySplines="0 0 1 1" calcMode="spline"/><animate repeatCount="indefinite" dur="8.5s" begin="0s" xlink:href="#_R_G_L_3_G_M" fill="freeze" attributeName="opacity" from="0" to="1" keyTimes="0;0.4019608;0.401961;1" values="0;0;1;1" keySplines="0 0 0 0;0 0 0 0;0 0 0 0" calcMode="spline"/><animateTransform repeatCount="indefinite" dur="8.5s" begin="0s" xlink:href="#_R_G_L_2_G" fill="freeze" attributeName="transform" from="1 1" to="0 0" type="scale" additive="sum" keyTimes="0;0.6862745;0.7313725;0.9019608;0.9235294;1" values="1 1;1 1;2.21 2.21;2.21 2.21;0 0;0 0" keySplines="0.333 0 0.667 1;0.333 0 0.667 1;0.333 0 0.667 1;0.333 0 0.667 1;0 0 0 0" calcMode="spline"/><animateTransform repeatCount="indefinite" dur="8.5s" begin="0s" xlink:href="#_R_G_L_2_G" fill="freeze" attributeName="transform" from="95 73.5" to="95 73.5" type="translate" additive="sum" keyTimes="0;1" values="95 73.5;95 73.5" keySplines="0 0 1 1" calcMode="spline"/><animate repeatCount="indefinite" dur="8.5s" begin="0s" xlink:href="#_R_G_L_2_G_M" fill="freeze" attributeName="opacity" from="0" to="0" keyTimes="0;0.6862745;0.6862747;0.9254902;0.9254902;1" values="0;0;1;1;0;0" keySplines="0 0 0 0;0 0 0 0;0 0 0 0;0 0 0 0;0 0 0 0" calcMode="spline"/><animate repeatCount="indefinite" dur="8.5s" begin="0s" xlink:href="#_R_G_L_0_G_L_1_G_M" fill="freeze" attributeName="opacity" from="1" to="0" keyTimes="0;0.9921569;0.9921569;1" values="1;1;0;0" keySplines="0 0 0 0;0 0 0 0;0 0 0 0" calcMode="spline"/><animateMotion repeatCount="indefinite" dur="8.5s" begin="0s" xlink:href="#_R_G_L_0_G" fill="freeze" keyTimes="0;0.0313725;0.1294118;0.4509804;0.5;0.5784314;0.8254902;0.8666667;0.9411765;1" path="M0 185.01 C0,185.01 0,185.01 0,185.01 C0,185.01 1.49,185.01 1.49,185.01 C1.49,185.01 1.49,185.01 1.49,185.01 C1.49,185.01 -284.2,185.01 -284.2,185.01 C-284.2,185.01 1.49,185.01 1.49,185.01 C1.49,185.01 1.49,185.01 1.49,185.01 C1.49,185.01 -284.2,185.01 -284.2,185.01 C-284.2,185.01 1.49,185.01 1.49,185.01 C1.49,185.01 1.49,185.01 1.49,185.01 " keyPoints="0;0;0;0;0.25;0.5;0.5;0.75;1;1" keySplines="0.333 0 0.667 1;0.333 0 0.667 1;0.167 0.167 0.667 0.667;0.333 0 0.667 1;0.333 0 0.667 1;0.333 0.333 0.667 0.667;0.333 0 0.667 1;0.333 0 0.667 1;0 0 0 0" calcMode="spline"/><animateTransform repeatCount="indefinite" dur="8.5s" begin="0s" xlink:href="#_R_G_L_0_G" fill="freeze" attributeName="transform" from="0.99206 0.99206" to="0.99206 0.99206" type="scale" additive="sum" keyTimes="0;1" values="0.99206 0.99206;0.99206 0.99206" keySplines="0 0 1 1" calcMode="spline"/><animateTransform repeatCount="indefinite" dur="8.5s" begin="0s" xlink:href="#_R_G_L_0_G" fill="freeze" attributeName="transform" from="-118 -58.5" to="-118 -58.5" type="translate" additive="sum" keyTimes="0;1" values="-118 -58.5;-118 -58.5" keySplines="0 0 1 1" calcMode="spline"/><animateMotion repeatCount="indefinite" dur="8.5s" begin="0s" xlink:href="#_R_G_L_0_G_N_6_T_0" fill="freeze" keyTimes="0;0.000002;0.117649;0.4705902;0.5882373;0.590198;0.7039235;0.8254922;0.9411783;1" path="M1326.23 300 C1326.23,300 1326.23,300 1326.23,300 C1326.23,300 450.23,300 450.23,300 C450.23,300 450.23,300 450.23,300 C450.23,300 -409.77,300 -409.77,300 C-409.77,300 1328.23,300 1328.23,300 C1328.23,300 454.23,300 454.23,300 C454.23,300 454.23,300 454.23,300 C454.23,300 -427.77,300 -427.77,300 C-427.77,300 -427.77,300 -427.77,300 " keyPoints="0;0;0.17;0.17;0.33;0.66;0.83;0.83;1;1" keySplines="0.333 0 0.667 1;0.333 0 0.667 1;0.333 0.333 0.667 0.667;0.333 0 0.667 1;0.333 0 0.667 1;0.333 0 0.667 1;0.333 0.333 0.667 0.667;0.333 0 0.667 1;0 0 0 0" calcMode="spline"/><animateTransform repeatCount="indefinite" dur="8.5s" begin="0s" xlink:href="#_R_G_L_0_G_N_6_T_0" fill="freeze" attributeName="transform" from="1.008 1.008" to="1.008 1.008" type="scale" additive="sum" keyTimes="0;1" values="1.008 1.008;1.008 1.008" keySplines="0 0 1 1" calcMode="spline"/><animate attributeType="XML" attributeName="opacity" dur="9s" from="0" to="1" xlink:href="#time_group"/></defs><g id="_R_G"><g id="_R_G_L_5_G"><path id="_R_G_L_5_G_D_0_P_0" stroke="#00334e" stroke-linecap="round" stroke-linejoin="round" fill="none" stroke-width="9" stroke-opacity="1" d=" M-399 251 C-399,251 400,250 400,250 "/></g><g id="_R_G_L_4_G" transform=" translate(355.5, 227)"><path id="_R_G_L_4_G_D_0_P_0" fill="#a5006c" fill-opacity="1" fill-rule="nonzero" d=" M-94.55 -111.27 C-73.94,-111.27 -57.2,-94.53 -57.2,-73.92 C-57.2,-53.3 -73.94,-36.57 -94.55,-36.57 C-115.16,-36.57 -131.9,-53.3 -131.9,-73.92 C-131.9,-94.53 -115.16,-111.27 -94.55,-111.27z "/></g><g id="_R_G_L_3_G_M"><g id="_R_G_L_3_G" transform=" translate(356, 359.5)"><path id="_R_G_L_3_G_D_0_P_0" fill="#00cac6" fill-opacity="1" fill-rule="nonzero" d=" M-94.55 -111.27 C-73.94,-111.27 -57.2,-94.53 -57.2,-73.92 C-57.2,-53.3 -73.94,-36.57 -94.55,-36.57 C-115.16,-36.57 -131.9,-53.3 -131.9,-73.92 C-131.9,-94.53 -115.16,-111.27 -94.55,-111.27z "/></g></g><g id="_R_G_L_2_G_M"><g id="_R_G_L_2_G" transform=" translate(355, 292.5)"><path id="_R_G_L_2_G_D_0_P_0" fill="#fbb83f" fill-opacity="1" fill-rule="nonzero" d=" M-94.55 -111.27 C-73.94,-111.27 -57.2,-94.53 -57.2,-73.92 C-57.2,-53.3 -73.94,-36.57 -94.55,-36.57 C-115.16,-36.57 -131.9,-53.3 -131.9,-73.92 C-131.9,-94.53 -115.16,-111.27 -94.55,-111.27z "/></g></g><g id="_R_G_L_1_G" transform=" translate(355.5, 292.028) translate(-70.203, -118)"><path id="_R_G_L_1_G_D_0_P_0" fill="#00334e" fill-opacity="1" fill-rule="nonzero" d=" M70.2 32.86 C63.87,32.86 57.96,35.96 54.38,41.15 C54.38,41.15 86.03,41.15 86.03,41.15 C85.29,40.07 84.37,39.03 83.22,37.96 C83.05,37.81 82.86,37.66 82.68,37.52 C82.6,37.45 82.51,37.38 82.42,37.31 C81.67,36.69 80.85,36.11 79.89,35.54 C79.51,35.32 79.06,35.07 78.6,34.84 C77.8,34.46 76.91,34.12 75.89,33.8 C75.73,33.76 75.59,33.71 75.44,33.66 C75.15,33.56 74.85,33.46 74.55,33.39 C73,33.03 71.58,32.86 70.2,32.86z  M70.2 80.66 C60.18,80.66 50.81,75.22 45.74,66.47 C44.5,64.33 45.23,61.59 47.37,60.35 C48.05,59.95 48.83,59.74 49.61,59.74 C51.21,59.74 52.7,60.6 53.49,61.98 C57.02,68.07 63.27,71.7 70.2,71.7 C71.24,71.7 72.35,71.59 73.7,71.35 C74.01,71.29 74.26,71.24 74.49,71.18 C75.64,70.93 76.72,70.59 77.68,70.19 C77.75,70.16 77.83,70.12 77.9,70.08 C77.95,70.06 78,70.03 78.05,70 C78.79,69.68 79.56,69.26 80.49,68.68 C80.49,68.68 80.59,68.61 80.59,68.61 C80.92,68.41 81.22,68.21 81.53,67.98 C81.96,67.67 82.36,67.32 82.75,66.98 C82.75,66.98 82.93,66.82 82.93,66.82 C83.86,66 84.63,65.19 85.3,64.35 C85.37,64.26 85.44,64.17 85.52,64.08 C86.04,63.38 86.51,62.68 86.92,61.98 C88.71,58.9 89.62,55.64 89.62,52.28 C89.62,51.77 89.55,51.27 89.49,50.78 C89.46,50.56 89.43,50.34 89.41,50.12 C89.41,50.12 47.37,50.12 47.37,50.12 C45.96,50.12 44.63,49.45 43.79,48.33 C42.94,47.21 42.67,45.73 43.06,44.39 C46.57,32.32 57.73,23.9 70.2,23.9 C71.73,23.9 73.32,24.06 75.2,24.4 C75.76,24.5 76.31,24.64 76.84,24.78 C76.84,24.78 77.06,24.83 77.06,24.83 C77.98,25.07 78.9,25.35 79.79,25.68 C79.79,25.68 79.99,25.75 79.99,25.75 C80.66,26 81.36,26.25 82.01,26.55 C82.38,26.72 82.74,26.92 83.08,27.12 C83.25,27.22 83.42,27.31 83.58,27.4 C85.36,28.37 87.03,29.5 88.52,30.78 C88.6,30.85 88.68,30.91 88.76,30.97 C88.88,31.07 89.01,31.17 89.13,31.29 C89.94,32.01 90.75,32.85 91.61,33.85 C91.72,33.98 91.83,34.11 91.94,34.25 C91.94,34.25 92.11,34.46 92.11,34.46 C93.98,36.75 95.36,38.94 96.31,41.15 C96.31,41.15 100.71,41.15 100.71,41.15 C103.18,41.15 105.19,43.16 105.19,45.64 C105.19,48.11 103.18,50.12 100.71,50.12 C100.71,50.12 98.37,50.12 98.37,50.12 C98.39,50.41 98.43,50.7 98.47,50.98 C98.52,51.4 98.58,51.83 98.58,52.28 C98.58,57.13 97.29,61.84 94.74,66.28 C94.72,66.31 94.71,66.35 94.71,66.38 C94.7,66.41 94.69,66.44 94.67,66.47 C94.65,66.52 94.62,66.56 94.58,66.61 C94.54,66.66 94.51,66.72 94.47,66.77 C93.93,67.68 93.38,68.5 92.8,69.27 C92.56,69.58 92.3,69.88 92.06,70.18 C91.97,70.28 91.88,70.39 91.79,70.49 C90.81,71.65 89.77,72.71 88.6,73.71 C88.03,74.21 87.51,74.65 86.95,75.07 C86.3,75.55 85.65,75.99 84.95,76.4 C84.24,76.84 83.45,77.27 82.54,77.72 C82.54,77.72 82.47,77.75 82.47,77.75 C81.8,78.08 81.16,78.39 80.47,78.66 C79.31,79.12 78.06,79.51 76.65,79.85 C76.1,79.98 75.59,80.08 75.16,80.16 C73.27,80.5 71.7,80.66 70.2,80.66z  M70.2 99.24 C63.87,99.24 57.95,102.35 54.38,107.55 C54.38,107.55 86.03,107.55 86.03,107.55 C85.29,106.47 84.37,105.42 83.21,104.34 C83.03,104.17 82.83,104.02 82.64,103.87 C82.64,103.87 82.44,103.71 82.44,103.71 C81.66,103.06 80.8,102.46 79.88,101.92 C79.42,101.65 79.02,101.43 78.6,101.23 C77.8,100.84 76.91,100.5 75.88,100.18 C75.72,100.13 75.56,100.08 75.4,100.03 C75.13,99.94 74.85,99.84 74.55,99.77 C73,99.41 71.58,99.24 70.2,99.24z  M70.2 147.04 C60.18,147.04 50.81,141.6 45.74,132.85 C44.5,130.72 45.23,127.97 47.37,126.73 C48.05,126.34 48.83,126.13 49.61,126.13 C51.21,126.13 52.7,126.99 53.49,128.36 C57.01,134.44 63.26,138.07 70.2,138.07 C71.28,138.07 72.39,137.96 73.7,137.73 C73.96,137.68 74.22,137.63 74.47,137.57 C75.69,137.29 76.75,136.96 77.69,136.57 C77.75,136.54 77.81,136.51 77.87,136.48 C77.91,136.46 77.95,136.44 78,136.42 C78.81,136.05 79.64,135.61 80.52,135.05 C80.52,135.05 80.64,134.97 80.64,134.97 C80.93,134.79 81.22,134.59 81.5,134.38 C82.07,133.98 82.58,133.53 83.01,133.14 C83.89,132.35 84.62,131.58 85.25,130.79 C85.29,130.73 85.33,130.68 85.38,130.63 C85.43,130.57 85.48,130.51 85.53,130.45 C86.06,129.74 86.53,129.04 86.92,128.36 C88.71,125.28 89.62,122.02 89.62,118.66 C89.62,118.15 89.55,117.66 89.49,117.17 C89.46,116.95 89.43,116.73 89.41,116.51 C89.41,116.51 47.37,116.51 47.37,116.51 C45.97,116.51 44.63,115.84 43.79,114.71 C42.94,113.59 42.67,112.12 43.06,110.78 C46.57,98.71 57.73,90.28 70.2,90.28 C71.74,90.28 73.33,90.44 75.2,90.78 C75.81,90.89 76.4,91.04 76.97,91.19 C76.97,91.19 77.06,91.21 77.06,91.21 C77.98,91.45 78.9,91.73 79.79,92.06 C79.79,92.06 79.99,92.13 79.99,92.13 C80.66,92.38 81.36,92.63 82.01,92.93 C82.37,93.1 82.72,93.3 83.06,93.49 C83.23,93.59 83.39,93.68 83.56,93.78 C85.36,94.74 87.04,95.89 88.55,97.19 C88.63,97.26 88.71,97.32 88.8,97.39 C88.91,97.48 89.02,97.56 89.12,97.66 C89.93,98.38 90.75,99.23 91.62,100.25 C91.78,100.44 91.94,100.63 92.09,100.82 C93.99,103.14 95.37,105.34 96.31,107.55 C96.31,107.55 100.71,107.55 100.71,107.55 C103.18,107.55 105.19,109.56 105.19,112.02 C105.19,114.5 103.18,116.51 100.71,116.51 C100.71,116.51 98.37,116.51 98.37,116.51 C98.39,116.8 98.43,117.09 98.47,117.36 C98.52,117.78 98.58,118.22 98.58,118.66 C98.58,123.51 97.29,128.23 94.74,132.67 C94.72,132.7 94.71,132.73 94.71,132.76 C94.7,132.79 94.69,132.82 94.67,132.85 C94.64,132.91 94.61,132.96 94.57,133 C94.54,133.05 94.5,133.1 94.47,133.16 C93.92,134.07 93.38,134.88 92.8,135.65 C92.52,136.02 92.2,136.39 91.9,136.74 C91.9,136.74 91.77,136.89 91.77,136.89 C90.79,138.05 89.77,139.09 88.65,140.05 C88.65,140.05 88.52,140.16 88.52,140.16 C87.99,140.62 87.49,141.05 86.94,141.46 C86.34,141.9 85.7,142.33 84.97,142.78 C84.24,143.23 83.44,143.67 82.5,144.12 C82.5,144.12 82.19,144.27 82.19,144.27 C81.65,144.53 81.08,144.8 80.51,145.03 C79.32,145.5 78.05,145.9 76.64,146.24 C76.16,146.35 75.68,146.44 75.16,146.54 C73.3,146.88 71.72,147.04 70.2,147.04z  M70.2 165.62 C63.88,165.62 57.97,168.73 54.38,173.93 C54.38,173.93 86.03,173.93 86.03,173.93 C85.29,172.85 84.37,171.8 83.21,170.73 C83,170.54 82.79,170.37 82.58,170.2 C82.58,170.2 82.43,170.09 82.43,170.09 C81.65,169.44 80.79,168.84 79.88,168.31 C79.5,168.09 79.06,167.84 78.6,167.62 C77.84,167.24 76.97,166.91 75.88,166.57 C75.73,166.52 75.58,166.47 75.44,166.43 C75.14,166.32 74.86,166.23 74.55,166.16 C73,165.8 71.58,165.62 70.2,165.62z  M70.2 213.42 C60.18,213.42 50.81,207.99 45.74,199.24 C45.14,198.2 44.98,197 45.29,195.84 C45.59,194.68 46.33,193.72 47.37,193.12 C48.05,192.73 48.83,192.52 49.62,192.52 C51.21,192.52 52.7,193.37 53.49,194.75 C57.01,200.83 63.26,204.46 70.2,204.46 C71.27,204.46 72.38,204.35 73.7,204.11 C73.96,204.06 74.22,204.01 74.47,203.95 C75.71,203.67 76.76,203.35 77.69,202.95 C77.74,202.93 77.79,202.91 77.83,202.89 C77.88,202.86 77.94,202.83 78,202.81 C78.78,202.46 79.6,202.01 80.52,201.43 C80.52,201.43 80.64,201.36 80.64,201.36 C80.93,201.17 81.22,200.98 81.5,200.77 C82.03,200.39 82.52,199.97 83.01,199.53 C83.9,198.72 84.63,197.95 85.25,197.17 C85.28,197.13 85.32,197.09 85.36,197.04 C85.41,196.97 85.47,196.9 85.53,196.83 C86.06,196.13 86.53,195.43 86.92,194.75 C88.71,191.67 89.62,188.4 89.62,185.04 C89.62,184.54 89.55,184.04 89.49,183.55 C89.46,183.33 89.43,183.11 89.41,182.89 C89.41,182.89 47.37,182.89 47.37,182.89 C45.96,182.89 44.63,182.22 43.79,181.09 C42.94,179.98 42.67,178.51 43.06,177.16 C46.57,165.09 57.73,156.66 70.2,156.66 C71.73,156.66 73.31,156.83 75.2,157.17 C75.73,157.27 76.25,157.39 76.75,157.52 C76.75,157.52 77.06,157.6 77.06,157.6 C77.99,157.84 78.88,158.11 79.79,158.44 C79.79,158.44 79.91,158.49 79.91,158.49 C80.61,158.74 81.33,159.01 82.01,159.32 C82.36,159.48 82.7,159.67 83.02,159.85 C83.19,159.95 83.37,160.06 83.55,160.15 C85.36,161.13 87.04,162.28 88.53,163.56 C88.61,163.62 88.68,163.68 88.76,163.74 C88.89,163.84 89.01,163.94 89.12,164.05 C89.97,164.81 90.78,165.66 91.62,166.62 C91.77,166.81 91.92,166.99 92.08,167.18 C92.08,167.18 92.11,167.22 92.11,167.22 C93.98,169.51 95.35,171.71 96.31,173.93 C96.31,173.93 100.71,173.93 100.71,173.93 C103.18,173.93 105.19,175.94 105.19,178.4 C105.19,180.88 103.18,182.89 100.71,182.89 C100.71,182.89 98.37,182.89 98.37,182.89 C98.39,183.17 98.43,183.46 98.47,183.74 C98.52,184.17 98.58,184.6 98.58,185.04 C98.58,189.9 97.29,194.61 94.74,199.06 C94.72,199.08 94.71,199.12 94.7,199.15 C94.7,199.18 94.69,199.21 94.67,199.24 C94.64,199.29 94.61,199.34 94.57,199.39 C94.54,199.44 94.5,199.49 94.47,199.54 C93.92,200.45 93.38,201.27 92.8,202.03 C92.56,202.36 92.3,202.67 92.02,202.99 C91.94,203.09 91.85,203.19 91.77,203.29 C90.79,204.44 89.77,205.47 88.65,206.44 C88.65,206.44 88.51,206.55 88.51,206.55 C87.99,207.01 87.49,207.44 86.94,207.85 C86.28,208.33 85.63,208.76 84.97,209.17 C84.23,209.62 83.42,210.06 82.5,210.51 C82.5,210.51 82.39,210.56 82.39,210.56 C81.78,210.86 81.15,211.17 80.51,211.42 C79.29,211.9 77.99,212.31 76.64,212.62 C76.08,212.75 75.62,212.85 75.16,212.92 C73.3,213.26 71.72,213.42 70.2,213.42z  M70.2 8.96 C36.43,8.96 8.96,36.43 8.96,70.2 C8.96,70.2 8.96,165.8 8.96,165.8 C8.96,199.57 36.43,227.04 70.2,227.04 C103.97,227.04 131.45,199.57 131.45,165.8 C131.45,165.8 131.45,70.2 131.45,70.2 C131.45,36.43 103.97,8.96 70.2,8.96z  M70.2 236 C31.49,236 0,204.51 0,165.8 C0,165.8 0,70.2 0,70.2 C0,31.49 31.49,0 70.2,0 C108.91,0 140.41,31.49 140.41,70.2 C140.41,70.2 140.41,165.8 140.41,165.8 C140.41,204.51 108.91,236 70.2,236z "/></g><g id="_R_G_L_0_G_N_6_T_0"><g id="_R_G_L_0_G"><g id="_R_G_L_0_G_L_1_G_M"><g id="_R_G_L_0_G_L_1_G" transform=" translate(115.842, 49.483) scale(-1, 1) translate(-112.036, -45.452)"><path id="_R_G_L_0_G_L_1_G_D_0_P_0" fill="#ffffff" fill-opacity="1" fill-rule="nonzero" d=" M0 40.26 C0,40.26 0,87.21 0,87.21 C0,87.21 21.22,90.91 21.22,90.91 C21.22,90.91 26.73,74.86 26.73,74.86 C26.73,74.86 48.45,74.86 48.45,74.86 C48.45,74.86 55.75,90.91 55.75,90.91 C55.75,90.91 164.34,87.21 164.34,87.21 C164.34,87.21 170.61,74.86 170.61,74.86 C170.61,74.86 191.73,74.86 191.73,74.86 C191.73,74.86 199.95,90.91 199.95,90.91 C199.95,90.91 224.07,87.21 224.07,87.21 C224.07,87.21 224.07,47.88 224.07,47.88 C224.07,47.88 176.95,35.15 176.95,35.15 C176.95,35.15 164.34,35.15 164.34,35.15 C164.34,35.15 126.66,0 126.66,0 C126.66,0 55.75,0 55.75,0 C55.75,0 21.22,35.15 21.22,35.15 C21.22,35.15 0,40.26 0,40.26z "/></g></g><g id="_R_G_L_0_G_L_0_G" transform=" translate(118, 58.261) scale(-1, 1) translate(-118, -58.258)"><path id="_R_G_L_0_G_L_0_G_D_0_P_0" fill="#00334e" fill-opacity="1" fill-rule="nonzero" d=" M146.37 52.28 C146.37,54.76 144.36,56.77 141.89,56.77 C141.89,56.77 76.16,56.77 76.16,56.77 C75.47,56.77 74.78,56.6 74.16,56.29 C74.16,56.29 62.21,50.32 62.21,50.32 C59.99,49.23 59.07,46.55 60.15,44.33 C61.24,42.1 63.93,41.18 66.15,42.27 C66.15,42.27 66.21,42.3 66.21,42.3 C66.21,42.3 77.22,47.8 77.22,47.8 C77.22,47.8 141.89,47.8 141.89,47.8 C144.36,47.8 146.37,49.81 146.37,52.28z  M227.04 85.15 C227.04,87.62 225.03,89.63 222.56,89.63 C222.56,89.63 211.65,89.63 211.65,89.63 C209.17,77.51 197.33,69.68 185.2,72.16 C176.41,73.96 169.54,80.83 167.74,89.63 C167.74,89.63 68.24,89.63 68.24,89.63 C65.76,77.51 53.92,69.68 41.8,72.16 C33,73.96 26.13,80.83 24.33,89.63 C24.33,89.63 13.42,89.63 13.42,89.63 C10.95,89.63 8.94,87.62 8.94,85.15 C8.94,85.15 8.94,53.31 8.94,53.31 C8.94,51.25 10.34,49.46 12.33,48.96 C12.33,48.96 27.04,45.28 27.04,45.28 C29.4,44.69 31.56,43.47 33.29,41.74 C33.29,41.74 64.75,10.28 64.75,10.28 C65.59,9.44 66.74,8.96 67.93,8.96 C67.93,8.96 132.2,8.96 132.2,8.96 C133.39,8.96 134.53,9.44 135.37,10.28 C135.37,10.28 166.85,41.76 166.85,41.76 C168.81,43.72 171.47,44.82 174.25,44.82 C174.25,44.82 176.36,44.82 176.36,44.82 C180.88,44.82 185.38,45.37 189.76,46.46 C189.76,46.46 223.64,54.93 223.64,54.93 C225.64,55.43 227.04,57.23 227.04,59.28 C227.04,59.28 227.04,85.15 227.04,85.15z  M189.69 107.56 C182.27,107.56 176.25,101.54 176.25,94.11 C176.25,86.68 182.27,80.67 189.69,80.67 C197.12,80.67 203.14,86.68 203.14,94.11 C203.13,101.53 197.11,107.55 189.69,107.56  M46.29 107.56 C38.86,107.56 32.84,101.54 32.84,94.11 C32.84,86.68 38.86,80.67 46.29,80.67 C53.71,80.67 59.73,86.68 59.73,94.11 C59.72,101.53 53.71,107.55 46.29,107.56  M225.82 46.24 C225.82,46.24 191.94,37.77 191.94,37.77 C186.84,36.5 181.61,35.85 176.36,35.85 C176.36,35.85 174.25,35.85 174.25,35.85 C173.85,35.85 173.46,35.7 173.18,35.42 C173.18,35.42 141.71,3.94 141.71,3.94 C139.19,1.41 135.77,-0.01 132.2,0 C132.2,0 67.93,0 67.93,0 C64.36,-0.01 60.94,1.41 58.42,3.94 C58.42,3.94 26.95,35.41 26.95,35.41 C26.38,35.99 25.65,36.4 24.86,36.6 C24.86,36.6 10.16,40.28 10.16,40.28 C4.18,41.78 -0.01,47.16 0,53.32 C0,53.32 0,85.15 0,85.15 C0.01,92.56 6.01,98.57 13.42,98.59 C13.42,98.59 24.33,98.59 24.33,98.59 C26.81,110.72 38.65,118.54 50.77,116.06 C59.57,114.26 66.44,107.39 68.24,98.59 C68.24,98.59 167.74,98.59 167.74,98.59 C170.22,110.72 182.06,118.54 194.18,116.06 C202.98,114.26 209.85,107.39 211.65,98.59 C211.65,98.59 222.56,98.59 222.56,98.59 C229.98,98.59 235.99,92.57 236,85.15 C236,85.15 236,59.28 236,59.28 C236.01,53.11 231.81,47.73 225.82,46.24 "/></g></g></g></g><g id="time_group"/></svg>